<?xml version="1.0" encoding="utf-8"?>
<!-- Generator: Adobe Illustrator 21.0.0, SVG Export Plug-In . SVG Version: 6.00 Build 0)  -->
<svg version="1.1" id="Layer_1" xmlns="http://www.w3.org/2000/svg" xmlns:xlink="http://www.w3.org/1999/xlink" x="0px" y="0px"
	 viewBox="0 0 447 184" style="enable-background:new 0 0 447 184;" xml:space="preserve">
<style type="text/css">
	.st0{fill:#FFFFFF;}
	.st1{fill:#EC5259;}
	.st2{fill:#E27A26;}
	.st3{fill:#FFF4DE;}
	.st4{fill:#F89C2E;}
	.st5{fill:#93672C;}
	.st6{fill:#A8AD40;}
	.st7{fill:#B5C046;}
	.st8{fill:#E6DB8B;}
	.st9{fill:#140105;}
	.st10{fill:#2A1719;}
	.st11{fill:#FDE6C6;}
	.st12{fill:#A61E22;}
	.st13{fill:#CE202D;}
	.st14{fill:#DA554E;}
	.st15{fill:#FFC71C;}
	.st16{fill:#F59906;}
	.st17{fill:#FAEB98;}
	.st18{fill:#C58351;}
	.st19{fill:#9F662F;}
	.st20{fill:#057A08;}
	.st21{fill:#EE4431;}
	.st22{fill:#641E12;}
	.st23{fill:#F2B924;}
	.st24{fill:#F05759;}
	.st25{fill:#802747;}
	.st26{fill:#7B3825;}
	.st27{fill:#D69F25;}
	.st28{fill:#DB6027;}
	.st29{fill:#EF6D22;}
	.st30{fill:#F4A61D;}
	.st31{fill:#E09526;}
	.st32{fill:#743629;}
	.st33{fill:#7B3F35;}
	.st34{fill:#CA122D;}
	.st35{fill:#1E7A1B;}
</style>
<g>
	<path class="st0" d="M79,165c-39.7,0-72-32.3-72-72s32.3-72,72-72s72,32.3,72,72S118.7,165,79,165z"/>
	<path class="st1" d="M79,22c39.1,0,71,31.9,71,71s-31.9,71-71,71S8,132.1,8,93S39.9,22,79,22 M79,20C38.7,20,6,52.7,6,93
		s32.7,73,73,73s73-32.7,73-73S119.3,20,79,20L79,20z"/>
</g>
<g>
	<g>
		<g>
			<circle class="st2" cx="79.1" cy="93.1" r="30.9"/>
			<circle class="st3" cx="79.1" cy="93.1" r="26.7"/>
			<g>
				<g>
					<g>
						<path class="st4" d="M61.4,77c-3.6,4-5.9,9.2-6.2,15h21.2L61.4,77z"/>
						<path class="st4" d="M55.2,94.3c0.3,5.8,2.6,11,6.2,15l15-15H55.2z"/>
						<path class="st4" d="M95.2,75.4c-4-3.6-9.2-5.9-15-6.2v21.2L95.2,75.4z"/>
						<path class="st4" d="M103.1,92c-0.3-5.8-2.6-11-6.2-15l-15,15H103.1z"/>
						<path class="st4" d="M78,69.2c-5.8,0.3-11,2.6-15,6.2l15,15V69.2z"/>
						<path class="st4" d="M63,110.9c4,3.6,9.2,5.9,15,6.2V95.9L63,110.9z"/>
						<path class="st4" d="M80.3,117.1c5.8-0.3,11-2.6,15-6.2l-15-15V117.1z"/>
						<path class="st4" d="M81.9,94.3l15,15c3.6-4,5.9-9.2,6.2-15H81.9z"/>
					</g>
				</g>
			</g>
			<path class="st0" d="M72.4,83.3c0.8,1.4,2.8,2.1,3.4,2.2c0.1,0,0.2,0,0.2,0s0,0,0,0c0,0,0,0,0,0s0-0.1,0.1-0.1
				c0.2-0.6,0.9-2.6,0.2-4c0,0,0,0,0-0.1c-1-2.1-2.7-1.2-2.9-1.1C73,80.3,71.3,81.2,72.4,83.3C72.4,83.2,72.4,83.3,72.4,83.3z"/>
			<path class="st0" d="M81.7,81.4c-0.6,1.4,0,3.5,0.2,4c0,0.1,0.1,0.1,0.1,0.1s0,0,0,0c0,0,0,0,0,0s0.1,0,0.2,0
				c0.6-0.2,2.6-0.9,3.3-2.3c0,0,0,0,0-0.1c1-2.1-0.7-2.9-0.9-3C84.4,80.1,82.7,79.2,81.7,81.4C81.7,81.3,81.7,81.3,81.7,81.4z"/>
			<path class="st0" d="M88.8,86.4c-1.3,0.8-1.9,2.9-2,3.5c0,0.1,0,0.2,0,0.2s0,0,0,0c0,0,0,0,0,0s0.1,0,0.2,0c0.6,0.2,2.6,0.7,4,0
				c0,0,0,0,0.1,0c2-1.1,1.1-2.8,0.9-3C91.8,86.9,90.8,85.2,88.8,86.4C88.8,86.4,88.8,86.4,88.8,86.4z"/>
			<path class="st0" d="M90.9,95.7c-1.5-0.6-3.5,0.2-4,0.5c-0.1,0-0.1,0.1-0.1,0.1s0,0,0,0c0,0,0,0,0,0s0,0.1,0.1,0.1
				c0.2,0.6,1,2.5,2.4,3.2c0,0,0,0,0.1,0c2.1,0.9,2.9-0.8,2.9-1.1C92.4,98.4,93.1,96.6,90.9,95.7C91,95.8,90.9,95.7,90.9,95.7z"/>
			<path class="st0" d="M85.5,102.8c-0.8-1.4-2.8-2-3.4-2.2c-0.1,0-0.2,0-0.2,0s0,0,0,0c0,0,0,0,0,0s0,0.1-0.1,0.2
				c-0.2,0.6-0.8,2.6-0.2,4c0,0,0,0,0,0.1c1,2.1,2.7,1.2,3,1C85,105.8,86.7,104.9,85.5,102.8C85.5,102.8,85.5,102.8,85.5,102.8z"/>
			<path class="st0" d="M76.6,104.7c0.6-1.5-0.2-3.5-0.5-4c0-0.1-0.1-0.1-0.1-0.1s0,0,0,0c0,0,0,0,0,0s-0.1,0-0.1,0.1
				c-0.6,0.2-2.5,1-3.2,2.4c0,0,0,0,0,0.1c-0.9,2.1,0.8,2.9,1.1,2.9C73.9,106.2,75.7,107,76.6,104.7
				C76.6,104.8,76.6,104.8,76.6,104.7z"/>
			<path class="st0" d="M69.2,99.7c1.4-0.8,2-2.8,2.2-3.4c0-0.1,0-0.2,0-0.2s0,0,0,0c0,0,0,0,0,0s-0.1,0-0.2-0.1
				c-0.6-0.2-2.6-0.8-4-0.2c0,0,0,0-0.1,0c-2.1,1-1.2,2.7-1.1,3C66.3,99.1,67.1,100.8,69.2,99.7C69.2,99.7,69.2,99.7,69.2,99.7z"/>
			<path class="st0" d="M67.2,90.4c1.4,0.6,3.5-0.1,4-0.3c0.1,0,0.1-0.1,0.1-0.1s0,0,0,0c0,0,0,0,0,0s0-0.1,0-0.2
				c-0.2-0.6-0.9-2.6-2.3-3.3c0,0,0,0-0.1,0c-2.1-1-2.9,0.7-3,0.9C65.9,87.6,65,89.4,67.2,90.4C67.2,90.3,67.2,90.4,67.2,90.4z"/>
		</g>
	</g>
</g>
<g>
	<g>
		<path class="st5" d="M74.8,151.6c0-0.2,0-0.5,0-0.8c-0.1-2-0.3-3.8-0.6-5.5c-0.4-2-0.9-3.5-1.4-5c-0.1-0.4-0.3-0.9-0.4-1.3
			c-1.6-5.3-3.5-9.1-5.7-11.6c-3-3.5-15.1-9.6-19.7-9.5c-0.6-0.1-4.6-0.5-9.8,0.5c-4.7,0.9-11.3,3.2-16.8,9c0.1,0.2,0.3,0.4,0.4,0.6
			c10.9-11.6,26.2-9.3,26.2-9.3c4.3-0.1,16.3,5.9,19.2,9.2c2.9,3.3,4.7,8.5,5.6,11.4c0.1,0.3,0.2,0.5,0.3,0.8
			c0.3,0.9,0.6,1.8,0.9,2.8c0.1,0.2,0.1,0.5,0.2,0.8c0,0,0,0,0,0.1c0,0.1,0.1,0.3,0.1,0.4c0.1,0.3,0.1,0.6,0.2,0.9
			c0,0.2,0.1,0.3,0.1,0.5c0,0.1,0,0.2,0.1,0.3c0,0,0,0,0,0c0,0.1,0,0.2,0.1,0.4c0,0.3,0.1,0.5,0.1,0.8c0,0.3,0.1,0.6,0.1,0.9
			c0.1,0.9,0.2,1.9,0.2,3c0.1,4.2,0.4,5-2.1,9.8c0.3,0,0.5,0.1,0.8,0.1C74.9,156.4,74.9,155.2,74.8,151.6z"/>
		<g>
			<path class="st6" d="M74,150.8c0-1.1-0.1-2.1-0.2-3c0-0.3-0.1-0.6-0.1-0.9c0-0.3-0.1-0.6-0.1-0.8c0-0.1,0-0.2-0.1-0.4
				c0,0,0,0,0,0c0-0.1,0-0.2-0.1-0.3c0-0.2-0.1-0.3-0.1-0.5c-0.1-0.3-0.1-0.6-0.2-0.9c0-0.1-0.1-0.3-0.1-0.4c0,0,0,0,0-0.1
				c-0.1-0.3-0.1-0.5-0.2-0.8c-0.3-1-0.6-1.9-0.9-2.8c-0.1-0.3-0.2-0.5-0.3-0.8c-0.9-2.9-2.7-8.1-5.6-11.4
				c-2.9-3.3-14.9-9.4-19.2-9.2c0,0-15.3-2.2-26.2,9.3c1.2,2,2.5,3.9,3.9,5.7c0.2-0.2,0.5-0.5,0.7-0.7c0.2-0.2,0.5-0.4,0.8-0.7
				c0.2-0.1,0.3-0.3,0.5-0.4c0,0,0,0,0.1-0.1c0.1-0.1,0.2-0.2,0.3-0.2c0.1-0.1,0.3-0.2,0.4-0.4c0.5-0.4,1-0.7,1.5-1.1
				c0.1-0.1,0.3-0.2,0.4-0.3c0.1-0.1,0.3-0.2,0.4-0.3c0.1,0,0.1-0.1,0.2-0.1c0.1-0.1,0.2-0.1,0.3-0.2c0.1-0.1,0.2-0.1,0.3-0.2
				c0.4-0.3,0.9-0.5,1.3-0.7c0.1-0.1,0.2-0.1,0.4-0.2c0.2-0.1,0.4-0.2,0.6-0.3c0.1-0.1,0.3-0.1,0.4-0.2c0.1-0.1,0.3-0.1,0.4-0.1
				c0.1,0,0.3-0.1,0.4-0.1c0.5-0.2,1-0.3,1.5-0.4c0,0,0,0,0,0c0,0,0,0,0,0c0,0,0,0,0,0c0,0,0.1,0,0.1,0c0,0,0.1,0,0.1,0h0
				c0,0,0.1,0,0.1,0c0,0,0,0,0,0c0,0,0.1,0,0.1,0c0.2-0.1,0.5-0.1,0.8-0.2c0.1,0,0.1,0,0.2,0c0.1,0,0.1,0,0.2,0c0.1,0,0.1,0,0.2-0.1
				c0,0,0.1,0,0.1,0c0.1,0,0.2-0.1,0.3-0.1c0.2,0,0.3-0.1,0.5-0.1c0,0,0.1,0,0.1,0c0.1,0,0.2,0,0.3-0.1c0,0,0.1,0,0.1,0
				c0.1,0,0.2,0,0.3-0.1c0.1,0,0.2,0,0.3-0.1c0.3-0.1,0.6-0.1,0.9-0.2c0.1,0,0.2,0,0.3-0.1c0.1,0,0.2,0,0.2,0c0.1,0,0.3-0.1,0.4-0.1
				c0.3-0.1,0.7-0.1,1-0.2c0.1,0,0.3,0,0.4-0.1c0,0,0,0,0,0c0.1,0,0.3,0,0.4-0.1c0.1,0,0.1,0,0.2,0c0.1,0,0.3,0,0.4,0
				c0.2,0,0.3,0,0.5,0c0.2,0,0.3,0,0.5,0c0.1,0,0.2,0,0.2,0c0.1,0,0.1,0,0.2,0c0,0,0,0,0,0h0c0,0,0,0,0,0c0,0,0,0,0,0c0,0,0,0,0,0
				c0,0,0,0,0.1,0c1.4,0,2.6,0.2,3.3,0.7c2.9,2.2,6.5,2.2,8.9,4.3c0.1,0.1,0.2,0.1,0.2,0.2c0,0,0,0,0,0c0,0,0.1,0.1,0.1,0.1
				c0,0,0.1,0.1,0.1,0.1c0.1,0.2,0.3,0.3,0.4,0.5c0,0,0.1,0.1,0.1,0.1l0,0c0,0.1,0.1,0.1,0.1,0.2c0,0,0,0,0,0c0,0.1,0.1,0.1,0.1,0.2
				c0.1,0.2,0.3,0.5,0.4,0.7c0,0.1,0.1,0.1,0.1,0.2c0,0.1,0.1,0.2,0.1,0.3c0.1,0.2,0.2,0.4,0.3,0.6c0.1,0.1,0.1,0.3,0.2,0.4
				c0.2,0.4,0.3,0.9,0.5,1.3c0,0.1,0.1,0.2,0.1,0.3c0.1,0.3,0.2,0.5,0.3,0.8c0,0.1,0.1,0.2,0.1,0.2c0.3,1,0.6,2,0.9,3
				c0,0.1,0,0.1,0.1,0.2c0.1,0.5,0.3,0.9,0.4,1.4c0,0.1,0.1,0.3,0.1,0.4c0,0,0,0.1,0,0.1c0,0.1,0.1,0.1,0.1,0.2
				c0,0.1,0.1,0.2,0.1,0.3c0.1,0.2,0.1,0.3,0.2,0.5c0.1,0.2,0.1,0.3,0.2,0.5c0.1,0.1,0.1,0.3,0.2,0.4c0.1,0.1,0.1,0.3,0.2,0.4
				c0,0,0,0,0,0c0.1,0.1,0.1,0.2,0.2,0.3c0.4,0.7,0.9,1.4,1.3,2.1c0,0,0.1,0.1,0.1,0.1c0.1,0.2,0.2,0.3,0.3,0.5
				c0.1,0.2,0.2,0.3,0.3,0.5c0,0.1,0.1,0.2,0.1,0.3c0.2,0.3,0.4,0.7,0.5,1c0,0,0,0.1,0,0.1c0,0,0,0.1,0.1,0.1c0,0.1,0.1,0.2,0.1,0.3
				c0,0.1,0,0.1,0.1,0.2c0,0,0,0.1,0,0.1c0,0,0,0.1,0,0.1c0,0,0,0.1,0,0.1c0,0.1,0,0.1,0,0.2c0,0.1,0,0.1,0,0.2c0,0.1,0,0.1,0,0.2
				c0,0.1,0,0.1,0,0.2c0,0.2,0,0.3,0,0.5c0,0.1,0,0.1,0,0.2c0,0,0,0.1,0,0.1c0,0,0,0.1,0,0.1c0,0,0,0,0,0c0,0.1,0,0.2,0,0.2
				c0,0,0,0.1,0,0.1c0,0.1,0,0.1,0,0.2c0,0,0,0,0,0.1c0,0.1,0,0.2-0.1,0.3c0,0.1,0,0.2-0.1,0.2c0,0.1,0,0.1-0.1,0.2
				c0,0.1-0.1,0.2-0.1,0.2c0,0,0,0.1-0.1,0.1c-0.1,0.1-0.1,0.3-0.2,0.4c-0.1,0.1-0.1,0.2-0.2,0.3c-0.1,0.1-0.1,0.2-0.2,0.3
				c-0.1,0.1-0.1,0.3-0.2,0.4c0,0.1-0.1,0.2-0.1,0.3c-0.1,0.1-0.1,0.3-0.2,0.4c0,0.1-0.1,0.2-0.1,0.3c-0.1,0.2-0.1,0.3-0.2,0.5
				c0,0.1-0.1,0.2-0.1,0.4c0,0.1-0.1,0.3-0.1,0.4c0,0.1-0.1,0.2-0.1,0.2c0,0.1,0,0.1-0.1,0.2c-0.1,0.2-0.1,0.5-0.2,0.7
				c-0.1,0.3-0.2,0.6-0.2,0.9c2.7,0.6,5.5,1.1,8.4,1.4C74.4,155.9,74.2,155,74,150.8z"/>
			<path class="st7" d="M66.1,151c0,0.2,0,0.3,0,0.5c0,0.1,0,0.1,0,0.2c0,0,0,0.1,0,0.1c0,0,0,0.1,0,0.1c0,0,0,0,0,0
				c0,0.1,0,0.2,0,0.2c0,0,0,0.1,0,0.1c0,0.1,0,0.1,0,0.2c0,0,0,0,0,0.1c0,0.1,0,0.2-0.1,0.3c0,0.1,0,0.2-0.1,0.2
				c0,0.1,0,0.1-0.1,0.2c0,0.1-0.1,0.2-0.1,0.2c0,0,0,0.1-0.1,0.1c-0.1,0.1-0.1,0.3-0.2,0.4c-0.1,0.1-0.1,0.2-0.2,0.3
				c-0.1,0.1-0.1,0.2-0.2,0.3c-0.1,0.1-0.1,0.3-0.2,0.4c0,0.1-0.1,0.2-0.1,0.3c-0.1,0.1-0.1,0.3-0.2,0.4c0,0.1-0.1,0.2-0.1,0.3
				c-0.1,0.2-0.1,0.3-0.2,0.5c0,0.1-0.1,0.2-0.1,0.4c0,0.1-0.1,0.3-0.1,0.4c0,0.1-0.1,0.2-0.1,0.2c0,0.1,0,0.1-0.1,0.2
				c-0.1,0.2-0.1,0.5-0.2,0.7c-0.1,0.3-0.2,0.6-0.2,0.9c-2.8-0.7-5.6-1.5-8.2-2.5c-0.1,0-0.1-0.1-0.2-0.1c-0.1,0-0.1,0-0.2-0.1h0
				c-0.5-0.2-1-0.4-1.5-0.6c-0.6-0.2-1.1-0.5-1.7-0.7c-5.3-2.3-10.2-5.3-14.6-8.7c-0.2-0.2-0.4-0.3-0.6-0.5c0.1,0,0.1,0.1,0.2,0.1
				c0.2,0.1,0.3,0.2,0.5,0.3c0,0,0-0.1,0.1-0.1c-0.1-0.1-0.2-0.2-0.4-0.3c-0.2-0.2-0.5-0.4-0.7-0.6c-0.3-0.2-0.6-0.5-0.9-0.7
				c0,0-0.1,0-0.1-0.1c-0.4-0.3-0.8-0.6-1.2-0.9c-0.1,0-0.1-0.1-0.2-0.1c0,0,0,0,0,0c0,0,0,0,0,0c-0.1-0.1-0.3-0.2-0.4-0.4
				c0,0,0,0,0,0c-0.2-0.2-0.3-0.3-0.5-0.5c-0.5-0.4-0.9-0.9-1.4-1.4c-1.5-1.5-2.9-3-4.3-4.6l0,0c-0.2-0.3-0.5-0.6-0.7-0.9
				c0,0,0,0,0,0c-0.6-0.7-1.1-1.4-1.7-2.2c0.2-0.2,0.5-0.5,0.7-0.7c0.2-0.2,0.5-0.4,0.8-0.7c0.2-0.1,0.3-0.3,0.5-0.4
				c0,0,0,0,0.1-0.1c0.1-0.1,0.2-0.2,0.3-0.2c0.1-0.1,0.3-0.2,0.4-0.4c0.5-0.4,1-0.7,1.5-1.1c0.1-0.1,0.3-0.2,0.4-0.3
				c0.1-0.1,0.3-0.2,0.4-0.3c0.1,0,0.1-0.1,0.2-0.1c0.1-0.1,0.2-0.1,0.3-0.2c0.1-0.1,0.2-0.1,0.3-0.2c0.4-0.3,0.9-0.5,1.3-0.7
				c0.1-0.1,0.2-0.1,0.4-0.2c0.2-0.1,0.4-0.2,0.6-0.3c0.1-0.1,0.3-0.1,0.4-0.2c0.1-0.1,0.3-0.1,0.4-0.1c0.1,0,0.3-0.1,0.4-0.1
				c0.5-0.2,1-0.3,1.5-0.4c0,0,0,0,0,0c0,0,0,0,0,0c0,0,0,0,0,0c0,0,0.1,0,0.1,0c0,0,0.1,0,0.1,0h0c0,0,0.1,0,0.1,0c0,0,0,0,0,0
				c0,0,0.1,0,0.1,0c0.2-0.1,0.5-0.1,0.8-0.2c0.1,0,0.1,0,0.2,0c0.1,0,0.1,0,0.2,0c0.1,0,0.1,0,0.2-0.1c0,0,0.1,0,0.1,0
				c0.1,0,0.2-0.1,0.3-0.1c0.2,0,0.3-0.1,0.5-0.1c0,0,0.1,0,0.1,0c0.1,0,0.2,0,0.3-0.1c0,0,0.1,0,0.1,0c0.1,0,0.2,0,0.3-0.1
				c0.1,0,0.2,0,0.3-0.1c0.3-0.1,0.6-0.1,0.9-0.2c0.1,0,0.2,0,0.3-0.1c0.1,0,0.2,0,0.2,0c0.1,0,0.3-0.1,0.4-0.1
				c0.3-0.1,0.7-0.1,1-0.2c0.1,0,0.3,0,0.4-0.1c0,0,0,0,0,0c0.1,0,0.3,0,0.4-0.1c0.1,0,0.1,0,0.2,0c0.1,0,0.3,0,0.4,0
				c0.2,0,0.3,0,0.5,0c0.2,0,0.3,0,0.5,0c0.1,0,0.2,0,0.2,0c0.1,0,0.1,0,0.2,0c0,0,0,0,0,0h0c0,0,0,0,0,0c0,0,0,0,0,0c0,0,0,0,0,0
				c0,0,0,0,0.1,0c1.4,0,2.6,0.2,3.3,0.7c2.9,2.2,6.5,2.2,8.9,4.3c0.1,0.1,0.2,0.1,0.2,0.2c0,0,0,0,0,0c0,0,0.1,0.1,0.1,0.1
				c0,0,0.1,0.1,0.1,0.1c0.1,0.2,0.3,0.3,0.4,0.5c0,0,0.1,0.1,0.1,0.1l0,0c0,0.1,0.1,0.1,0.1,0.2c0,0,0,0,0,0c0,0.1,0.1,0.1,0.1,0.2
				c0.1,0.2,0.3,0.5,0.4,0.7c0,0.1,0.1,0.1,0.1,0.2c0,0.1,0.1,0.2,0.1,0.3c0.1,0.2,0.2,0.4,0.3,0.6c0.1,0.1,0.1,0.3,0.2,0.4
				c0.2,0.4,0.3,0.9,0.5,1.3c0,0.1,0.1,0.2,0.1,0.3c0.1,0.3,0.2,0.5,0.3,0.8c0,0.1,0.1,0.2,0.1,0.2c0.3,1,0.6,2,0.9,3
				c0,0.1,0,0.1,0.1,0.2c0.1,0.5,0.3,0.9,0.4,1.4c0,0.1,0.1,0.3,0.1,0.4c0,0,0,0.1,0,0.1c0,0.1,0.1,0.1,0.1,0.2
				c0,0.1,0.1,0.2,0.1,0.3c0.1,0.2,0.1,0.3,0.2,0.5c0.1,0.2,0.1,0.3,0.2,0.5c0.1,0.1,0.1,0.3,0.2,0.4c0.1,0.1,0.1,0.3,0.2,0.4
				c0,0,0,0,0,0c0.1,0.1,0.1,0.2,0.2,0.3c0.4,0.7,0.9,1.4,1.3,2.1c0,0,0.1,0.1,0.1,0.1c0.1,0.2,0.2,0.3,0.3,0.5
				c0.1,0.2,0.2,0.3,0.3,0.5c0,0.1,0.1,0.2,0.1,0.3c0.2,0.3,0.4,0.7,0.5,1c0,0,0,0.1,0,0.1c0,0,0,0.1,0.1,0.1c0,0.1,0.1,0.2,0.1,0.3
				c0,0.1,0,0.1,0.1,0.2c0,0,0,0.1,0,0.1c0,0,0,0.1,0,0.1c0,0,0,0.1,0,0.1c0,0.1,0,0.1,0,0.2c0,0.1,0,0.1,0,0.2c0,0.1,0,0.1,0,0.2
				C66.1,150.8,66.1,150.9,66.1,151z"/>
		</g>
		<path class="st8" d="M51.7,155.3c-5.3-2.3-10.2-5.3-14.6-8.7c0,0,0-0.1,0.1-0.1c0,0,0-0.1,0.1-0.1c0.2-0.3,0.4-0.5,0.5-0.8
			c0,0,0.1-0.1,0.1-0.1c0,0,0-0.1,0.1-0.1c0.1-0.1,0.1-0.1,0.2-0.2c0.3-0.4,0.6-0.7,0.9-1c0,0,0.1-0.1,0.1-0.1
			c0.1-0.1,0.2-0.2,0.4-0.3c0.1-0.1,0.2-0.1,0.3-0.2c0.2-0.1,0.5-0.2,0.7-0.1c0,0,0.3,0.2,0.8,0.4c0.1,0,0.2,0.1,0.3,0.1
			c0,0,0.1,0,0.1,0c0,0,0.1,0,0.1,0.1c0.3,0.1,0.7,0.3,1,0.4c0,0,0,0,0.1,0c0.3,0.1,0.6,0.2,0.9,0.3c0.1,0,0.2,0.1,0.3,0.1
			c0.4,0.1,0.7,0.2,1,0.2c0.1,0,0.2,0,0.3,0c0.1,0,0.3,0,0.4,0c0.2,0,0.5,0,0.7,0c0.1,0,0.1,0,0.1,0c0.2,0,0.5,0.1,0.7,0.2
			c0,0,0.1,0,0.1,0c0.7,0.2,1.2,0.5,1.5,0.7c0.1,0.1,0.2,0.1,0.2,0.1s0,0,0,0c0,0,0.1,0.1,0.1,0.3c0,0.1,0.1,0.1,0.1,0.2v0
			c0.1,0.3,0.2,0.6,0.4,1c0,0.1,0.1,0.1,0.1,0.2c0.1,0.2,0.2,0.5,0.3,0.7c0.1,0.1,0.1,0.2,0.2,0.3c0.1,0.1,0.1,0.2,0.2,0.3
			c0.2,0.2,0.3,0.5,0.5,0.9c0,0.1,0,0.1,0.1,0.2c0.1,0.3,0.2,0.6,0.3,0.9c0,0.1,0,0.2,0.1,0.2c0.1,0.2,0.1,0.5,0.2,0.7
			c0,0.1,0.1,0.3,0.1,0.4c0.1,0.3,0.1,0.5,0.2,0.7c0,0.1,0,0.2,0.1,0.3c0,0.1,0,0.2,0,0.3v0C51.8,154.4,51.8,154.9,51.7,155.3z"/>
		<path class="st8" d="M60.4,131.3c0,0-0.9,0.9-2.1,2.2c-0.6,0.7-1.4,1.4-2.2,2.2c-0.8,0.8-1.6,1.7-2.4,2.6
			c-0.8,0.9-1.6,1.8-2.4,2.7c-0.4,0.4-0.7,0.8-1.1,1.2c-0.2,0.2-0.4,0.4-0.5,0.6c-0.2,0.2-0.3,0.4-0.5,0.5c-0.3,0.3-0.6,0.6-0.8,0.9
			c-0.3,0.3-0.5,0.5-0.6,0.7c-0.4,0.4-0.6,0.6-0.6,0.6l-0.1,0c0,0,0.1-0.3,0.4-0.7c0.1-0.1,0.1-0.2,0.2-0.4c0.1-0.1,0.2-0.3,0.3-0.4
			c0.2-0.3,0.4-0.7,0.7-1c0.3-0.4,0.6-0.8,0.9-1.2c0.3-0.4,0.7-0.8,1.1-1.3c0.4-0.4,0.8-0.9,1.2-1.3c0.4-0.4,0.9-0.9,1.3-1.3
			c0.9-0.9,1.7-1.7,2.6-2.5c0.8-0.8,1.6-1.5,2.3-2.1C59.4,132.1,60.3,131.3,60.4,131.3L60.4,131.3z"/>
		<path class="st8" d="M62.4,135.2c0,0-0.9,0.7-2.2,1.8c-1.3,1.1-3.1,2.5-4.9,4c-0.4,0.4-0.9,0.7-1.3,1.1c-0.4,0.4-0.8,0.7-1.3,1.1
			c-0.4,0.3-0.8,0.7-1.2,1c-0.4,0.3-0.7,0.6-1.1,0.9c-0.3,0.3-0.6,0.5-0.9,0.7c-0.3,0.2-0.5,0.4-0.7,0.6c-0.2,0.2-0.3,0.3-0.4,0.4
			c-0.1,0.1-0.1,0.2-0.1,0.2l-0.1,0c0,0,0-0.1,0.1-0.2c0.1-0.1,0.2-0.3,0.3-0.5c0.1-0.2,0.3-0.4,0.6-0.7c0.2-0.3,0.5-0.6,0.8-0.9
			c0.3-0.3,0.6-0.6,1-1c0.4-0.3,0.8-0.7,1.2-1c0.4-0.3,0.9-0.7,1.3-1c0.5-0.3,0.9-0.7,1.4-1c1.8-1.4,3.7-2.7,5.1-3.7
			C61.5,135.7,62.4,135.1,62.4,135.2L62.4,135.2z"/>
		<path class="st8" d="M65.3,137.8c0,0-4.3,2.5-8.7,4.9c-1.1,0.6-2.2,1.2-3.2,1.8c-0.5,0.3-1,0.6-1.5,0.8c-0.5,0.3-0.9,0.5-1.3,0.7
			c-0.8,0.4-1.5,0.8-2,1c-0.2,0.1-0.4,0.2-0.5,0.3c-0.1,0.1-0.2,0.1-0.2,0.1l0,0c0,0,0.1-0.1,0.2-0.1c0.1-0.1,0.3-0.2,0.5-0.4
			c0.2-0.2,0.5-0.3,0.8-0.6c0.3-0.2,0.7-0.4,1.1-0.7c0.4-0.2,0.8-0.5,1.3-0.8c0.5-0.3,1-0.5,1.5-0.8c1-0.6,2.1-1.1,3.2-1.7
			c2.2-1.2,4.4-2.3,6.1-3.2C64.1,138.3,65.2,137.8,65.3,137.8L65.3,137.8z"/>
		<path class="st8" d="M66.1,140.1c0,0-1.1,0.5-2.7,1.4c-1.6,0.8-3.8,1.9-6,3c-1.1,0.5-2.2,1.1-3.2,1.6c-0.5,0.2-1,0.5-1.5,0.7
			c-0.5,0.2-0.9,0.4-1.3,0.6c-0.4,0.2-0.8,0.3-1.1,0.5c-0.3,0.1-0.6,0.3-0.9,0.4c-0.5,0.2-0.8,0.3-0.8,0.3l0,0c0,0,0.3-0.2,0.7-0.4
			c0.2-0.1,0.5-0.3,0.8-0.5c0.3-0.2,0.7-0.4,1.1-0.6c0.4-0.2,0.8-0.4,1.3-0.7c0.5-0.2,1-0.5,1.5-0.7c1-0.5,2.1-1,3.2-1.5
			c2.2-1,4.4-2,6.1-2.8C64.9,140.6,66,140.1,66.1,140.1L66.1,140.1z"/>
		<path class="st8" d="M66.6,143.2c0,0-1.1,0.4-2.7,1c-1.6,0.6-3.8,1.4-6,2.2c-0.5,0.2-1.1,0.4-1.6,0.6c-0.5,0.2-1.1,0.4-1.6,0.6
			c-0.5,0.2-1,0.3-1.5,0.5c-0.5,0.1-0.9,0.3-1.4,0.4c-1.7,0.5-2.8,0.7-2.8,0.7l0-0.1c0,0,1-0.5,2.7-1.2c0.4-0.2,0.8-0.3,1.3-0.5
			c0.5-0.2,1-0.4,1.5-0.5c0.5-0.2,1.1-0.3,1.6-0.5c0.5-0.2,1.1-0.3,1.7-0.5c2.2-0.7,4.4-1.4,6.1-1.9
			C65.4,143.5,66.6,143.2,66.6,143.2L66.6,143.2z"/>
		<path class="st8" d="M66.5,146.1c0,0-1,0.3-2.5,0.7c-1.5,0.4-3.6,1-5.6,1.6c-1,0.3-2,0.6-3,0.9c-0.5,0.1-0.9,0.2-1.4,0.3
			c-0.4,0.1-0.9,0.2-1.3,0.3c-0.4,0.1-0.7,0.2-1.1,0.2c-0.3,0.1-0.6,0.1-0.8,0.2c-0.5,0.1-0.7,0.1-0.7,0.1l0,0c0,0,0.2-0.1,0.7-0.2
			c0.2-0.1,0.5-0.2,0.8-0.3c0.3-0.1,0.7-0.2,1-0.3c0.4-0.1,0.8-0.2,1.2-0.4c0.4-0.1,0.9-0.2,1.4-0.4c1-0.2,2-0.5,3-0.7
			c2.1-0.5,4.1-1,5.7-1.4C65.5,146.3,66.5,146.1,66.5,146.1L66.5,146.1z"/>
		<path class="st8" d="M67.4,148.8c0,0-1.1,0.2-2.7,0.5c-1.6,0.3-3.8,0.7-6,1.1c-1.1,0.2-2.2,0.4-3.2,0.6c-0.5,0.1-1,0.2-1.5,0.2
			c-0.5,0.1-0.9,0.1-1.3,0.2c-0.4,0.1-0.8,0.1-1.1,0.1c-0.3,0-0.6,0.1-0.9,0.1c-0.5,0-0.8,0.1-0.8,0.1l0,0c0,0,0.3-0.1,0.7-0.2
			c0.2-0.1,0.5-0.1,0.9-0.2c0.3-0.1,0.7-0.2,1.1-0.2c0.4-0.1,0.8-0.2,1.3-0.3c0.5-0.1,1-0.2,1.5-0.3c1-0.2,2.1-0.3,3.2-0.5
			c2.2-0.3,4.4-0.6,6-0.9C66.3,148.9,67.4,148.8,67.4,148.8L67.4,148.8z"/>
		<path class="st8" d="M69,152.9c0,0-1.2-0.1-3-0.1c-0.9,0-2-0.1-3.1-0.1c-1.1,0-2.4-0.1-3.6-0.1c-1.2,0-2.4,0-3.6,0
			c-0.6,0-1.1,0-1.6,0c-0.3,0-0.5,0-0.8,0c-0.2,0-0.5,0-0.7,0c-0.5,0-0.9,0-1.2,0c-0.4,0-0.7,0-1,0c-0.5,0-0.8,0-0.8,0l0-0.1
			c0,0,0.3-0.1,0.8-0.2c0.1,0,0.3-0.1,0.4-0.1c0.2,0,0.3-0.1,0.5-0.1c0.4,0,0.8-0.1,1.2-0.2c0.5,0,1-0.1,1.5-0.1
			c0.5,0,1.1-0.1,1.7,0c0.6,0,1.2,0,1.8,0c0.6,0,1.2,0.1,1.8,0.1c1.2,0.1,2.4,0.1,3.6,0.2c1.1,0.1,2.2,0.2,3.1,0.3
			C67.8,152.7,69,152.8,69,152.9L69,152.9z"/>
		<path class="st8" d="M66.8,158.4c0,0-1.1-0.3-2.7-0.8c-1.6-0.5-3.8-1.2-6-1.8c-0.5-0.2-1.1-0.3-1.6-0.5c-0.5-0.1-1.1-0.3-1.6-0.4
			c-0.5-0.1-1-0.3-1.5-0.4c-0.5-0.1-0.9-0.3-1.3-0.4c-0.4-0.1-0.8-0.2-1.1-0.3c-0.3-0.1-0.6-0.2-0.9-0.2c-0.2-0.1-0.4-0.1-0.6-0.1
			c-0.1,0-0.2,0-0.2,0l0-0.1c0,0,0.1,0,0.2,0c0.1,0,0.3,0,0.6,0c0.3,0,0.6,0,0.9,0.1c0.4,0,0.7,0.1,1.2,0.2c0.4,0.1,0.9,0.2,1.4,0.3
			c0.5,0.1,1,0.2,1.5,0.4c0.5,0.2,1,0.3,1.6,0.5c0.5,0.2,1.1,0.4,1.6,0.5c2.2,0.7,4.3,1.5,5.9,2.1C65.8,157.9,66.8,158.3,66.8,158.4
			L66.8,158.4z"/>
		<path class="st8" d="M37.3,126c0,0,0.1,1.2,0.3,3c0.1,0.9,0.2,2,0.4,3.1c0.1,1.1,0.3,2.3,0.5,3.5c0.2,1.2,0.4,2.4,0.6,3.5
			c0.1,0.6,0.2,1.1,0.2,1.6c0,0.3,0.1,0.5,0.1,0.7c0,0.2,0.1,0.5,0.1,0.7c0.1,0.5,0.1,0.9,0.2,1.2c0.1,0.4,0.1,0.7,0.2,0.9
			c0.1,0.5,0.1,0.8,0.1,0.8l-0.1,0c0,0-0.1-0.3-0.3-0.8c0-0.1-0.1-0.3-0.2-0.4c0-0.2-0.1-0.3-0.2-0.5c-0.1-0.4-0.2-0.8-0.3-1.2
			c-0.1-0.4-0.2-0.9-0.3-1.4c-0.1-0.5-0.2-1.1-0.3-1.6c-0.1-0.6-0.2-1.2-0.2-1.8c-0.1-0.6-0.1-1.2-0.2-1.8c-0.1-1.2-0.2-2.4-0.3-3.6
			c-0.1-1.1-0.2-2.2-0.2-3.1C37.3,127.2,37.2,126,37.3,126L37.3,126z"/>
		<path class="st8" d="M41.2,126.3c0,0,0,1.1,0,2.9c0,1.7,0,4,0.1,6.3c0,0.6,0,1.1,0,1.7c0,0.6,0,1.1,0.1,1.6c0,0.5,0,1.1,0,1.5
			c0,0.5,0,1,0,1.4c0,0.4,0,0.8,0,1.2c0,0.3,0,0.6,0,0.9c0,0.2,0,0.4,0.1,0.6c0,0.1,0,0.2,0,0.2l-0.1,0c0,0,0-0.1-0.1-0.2
			c-0.1-0.1-0.1-0.3-0.2-0.6c-0.1-0.2-0.1-0.5-0.2-0.9c-0.1-0.3-0.1-0.7-0.2-1.2c0-0.4-0.1-0.9-0.1-1.4c0-0.5-0.1-1-0.1-1.6
			c0-0.5,0-1.1,0-1.7c0-0.6,0-1.1,0.1-1.7c0.1-2.3,0.2-4.6,0.3-6.3C41.1,127.5,41.2,126.3,41.2,126.3L41.2,126.3z"/>
		<path class="st8" d="M44.9,125.1c0,0-0.8,4.9-1.6,9.8c-0.2,1.2-0.4,2.5-0.6,3.6c-0.1,0.6-0.2,1.1-0.3,1.7c-0.1,0.5-0.2,1-0.3,1.5
			c-0.2,0.9-0.3,1.7-0.4,2.2c-0.1,0.3-0.1,0.5-0.1,0.6c0,0.1,0,0.2,0,0.2l0,0c0,0,0-0.1,0-0.2c0-0.2,0-0.4,0-0.6c0-0.3,0-0.6,0.1-1
			c0-0.4,0.1-0.8,0.1-1.3c0.1-0.5,0.1-1,0.2-1.5c0.1-0.5,0.2-1.1,0.3-1.7c0.2-1.2,0.4-2.4,0.7-3.6c0.5-2.4,0.9-4.9,1.3-6.7
			C44.6,126.3,44.9,125.1,44.9,125.1L44.9,125.1z"/>
		<path class="st8" d="M47.2,125.9c0,0-0.3,1.2-0.6,3c-0.4,1.8-0.9,4.1-1.4,6.5c-0.3,1.2-0.5,2.4-0.8,3.5c-0.1,0.6-0.3,1.1-0.4,1.6
			c-0.1,0.5-0.3,1-0.4,1.4c-0.1,0.4-0.2,0.8-0.3,1.2c-0.1,0.4-0.2,0.7-0.3,0.9c-0.2,0.5-0.3,0.8-0.3,0.8l0,0c0,0,0-0.3,0.1-0.8
			c0-0.3,0.1-0.6,0.2-0.9c0.1-0.4,0.1-0.8,0.2-1.2c0.1-0.4,0.2-0.9,0.3-1.4c0.1-0.5,0.2-1,0.4-1.6c0.3-1.1,0.6-2.3,0.9-3.4
			c0.6-2.3,1.2-4.7,1.6-6.5C46.9,127.1,47.2,125.9,47.2,125.9L47.2,125.9z"/>
		<path class="st8" d="M49.9,128.2c0,0-0.4,1.1-0.9,2.8c-0.5,1.7-1.3,3.9-2,6.1c-0.2,0.6-0.4,1.1-0.5,1.7c-0.2,0.5-0.4,1.1-0.5,1.6
			c-0.2,0.5-0.4,1-0.6,1.5c-0.2,0.5-0.4,0.9-0.5,1.3c-0.7,1.6-1.2,2.7-1.2,2.7l-0.1,0c0,0,0.2-1.2,0.8-2.8c0.1-0.4,0.3-0.9,0.4-1.3
			c0.2-0.5,0.3-1,0.5-1.5c0.2-0.5,0.4-1,0.6-1.6c0.2-0.5,0.4-1.1,0.6-1.6c0.8-2.2,1.7-4.3,2.3-6C49.4,129.3,49.8,128.2,49.9,128.2
			L49.9,128.2z"/>
		<path class="st8" d="M52.2,129.3c0,0-0.4,1.1-1.1,2.7c-0.7,1.6-1.6,3.7-2.5,5.9c-0.5,1.1-0.9,2.1-1.3,3.1c-0.2,0.5-0.4,1-0.7,1.4
			c-0.2,0.5-0.4,0.9-0.6,1.3c-0.2,0.4-0.4,0.7-0.5,1.1c-0.2,0.3-0.3,0.6-0.4,0.8c-0.2,0.4-0.4,0.7-0.4,0.7l0,0c0,0,0.1-0.3,0.3-0.8
			c0.1-0.2,0.2-0.5,0.3-0.9c0.1-0.3,0.3-0.7,0.4-1.1c0.2-0.4,0.3-0.8,0.5-1.3c0.2-0.5,0.4-0.9,0.6-1.4c0.5-1,1-2,1.4-3.1
			c1-2.1,2-4.2,2.7-5.8C51.6,130.3,52.1,129.3,52.2,129.3L52.2,129.3z"/>
		<path class="st8" d="M54.9,130.3c0,0-0.5,1-1.3,2.4c-0.8,1.5-1.9,3.4-2.9,5.3c-0.5,1-1,1.9-1.6,2.8c-0.3,0.4-0.5,0.9-0.8,1.3
			c-0.2,0.4-0.5,0.8-0.7,1.1c-0.2,0.4-0.4,0.7-0.6,1c-0.2,0.3-0.3,0.5-0.5,0.7c-0.3,0.4-0.4,0.6-0.4,0.6l0,0c0,0,0.1-0.3,0.3-0.7
			c0.1-0.2,0.2-0.5,0.4-0.8c0.2-0.3,0.3-0.6,0.5-1c0.2-0.4,0.4-0.8,0.6-1.2c0.2-0.4,0.5-0.9,0.7-1.3c0.5-0.9,1.1-1.8,1.7-2.8
			c1.1-1.9,2.2-3.8,3.1-5.2C54.3,131.2,54.8,130.3,54.9,130.3L54.9,130.3z"/>
		<path class="st8" d="M28.6,128.2c0,0,0.7,1,1.7,2.5c0.5,0.8,1.1,1.6,1.7,2.6c0.6,0.9,1.3,2,1.9,3c0.7,1,1.3,2.1,1.9,3
			c0.3,0.5,0.6,1,0.9,1.4c0.1,0.2,0.3,0.4,0.4,0.6c0.1,0.2,0.3,0.4,0.4,0.6c0.2,0.4,0.5,0.7,0.7,1.1c0.2,0.3,0.4,0.6,0.5,0.8
			c0.3,0.5,0.4,0.7,0.4,0.7l0.1,0c0,0-0.1-0.3-0.3-0.8c0-0.1-0.1-0.3-0.2-0.4c-0.1-0.1-0.1-0.3-0.2-0.5c-0.2-0.3-0.3-0.7-0.5-1.1
			c-0.2-0.4-0.4-0.9-0.7-1.3c-0.3-0.5-0.5-0.9-0.8-1.4c-0.3-0.5-0.6-1-1-1.5c-0.3-0.5-0.7-1-1-1.5c-0.7-1-1.4-2-2.1-2.9
			c-0.7-0.9-1.3-1.8-1.9-2.5C29.4,129.1,28.7,128.2,28.6,128.2L28.6,128.2z"/>
		<path class="st8" d="M26.5,131.9c0,0,0.7,0.9,1.9,2.2c1.1,1.3,2.6,3,4.1,4.8c0.4,0.4,0.7,0.9,1.1,1.3c0.3,0.4,0.7,0.9,1,1.3
			c0.3,0.4,0.7,0.8,1,1.2c0.3,0.4,0.6,0.7,0.9,1c0.3,0.3,0.5,0.6,0.8,0.9c0.2,0.3,0.4,0.5,0.6,0.7c0.2,0.2,0.3,0.4,0.3,0.5
			c0.1,0.1,0.1,0.2,0.1,0.2l0.1,0c0,0,0-0.1,0-0.2c0-0.1-0.1-0.3-0.2-0.6c-0.1-0.2-0.3-0.5-0.4-0.8c-0.2-0.3-0.4-0.6-0.6-1
			c-0.2-0.4-0.5-0.7-0.8-1.1c-0.3-0.4-0.6-0.8-1-1.2c-0.4-0.4-0.7-0.8-1.1-1.2c-0.4-0.4-0.8-0.8-1.2-1.3c-1.6-1.7-3.1-3.4-4.3-4.6
			C27.4,132.7,26.6,131.9,26.5,131.9L26.5,131.9z"/>
		<path class="st8" d="M38.3,146.1L38.3,146.1c0,0-0.1,0-0.2-0.1c-0.1-0.1-0.2-0.2-0.4-0.3c0,0-0.1-0.1-0.1-0.1
			c-0.4-0.3-1-0.8-1.8-1.4c-0.4-0.3-0.8-0.6-1.2-0.9c-0.4-0.3-0.9-0.7-1.3-1.1c-0.9-0.8-1.8-1.6-2.8-2.4c-1.2-1-2.5-2.1-3.6-3l0,0
			c-0.2-0.3-0.5-0.6-0.7-0.9c1.3,1,2.9,2.3,4.5,3.6c1,0.8,2,1.5,2.9,2.3c0.4,0.4,0.9,0.7,1.3,1.1c0.4,0.4,0.8,0.7,1.1,1
			c0.3,0.3,0.7,0.6,0.9,0.9c0.3,0.3,0.5,0.5,0.7,0.7c0,0,0.1,0.1,0.1,0.1c0.1,0.2,0.3,0.3,0.3,0.4C38.3,146,38.3,146.1,38.3,146.1z"
			/>
		<path class="st8" d="M33.3,143.3c0.2,0.1,0.3,0.2,0.4,0.3c0,0,0,0,0,0c0,0,0,0,0,0C33.6,143.6,33.4,143.5,33.3,143.3z"/>
		<path class="st8" d="M37.4,146.6L37.4,146.6c0,0-0.1,0-0.3-0.1c0,0,0-0.1,0.1-0.1C37.3,146.5,37.4,146.6,37.4,146.6z"/>
		<g>
			<path class="st9" d="M57.7,149.9c-0.9,0.2-2-0.2-2.1-0.6c-0.1-0.4,0.8-1.2,1.7-1.4c0.9-0.2,1.5,0.2,1.6,0.7
				C59,149.2,58.6,149.7,57.7,149.9z"/>
			
				<ellipse transform="matrix(0.9821 -0.1885 0.1885 0.9821 -26.9221 13.6273)" class="st10" cx="58.2" cy="148.4" rx="0.2" ry="0.2"/>
		</g>
		<g>
			<path class="st9" d="M55,148.9c-0.7,0.3-1.6,0.2-1.7-0.2c-0.1-0.3,0.4-1,1.1-1.3c0.7-0.3,1.2-0.1,1.4,0.3
				C55.9,148.2,55.7,148.6,55,148.9z"/>
			
				<ellipse transform="matrix(0.9295 -0.3688 0.3688 0.9295 -50.5592 30.7538)" class="st10" cx="55.2" cy="147.6" rx="0.2" ry="0.1"/>
		</g>
		<g>
			<path class="st9" d="M57.4,151.9c-0.6,0-1.2-0.4-1.2-0.6c0-0.3,0.6-0.6,1.2-0.6c0.6,0,0.9,0.3,0.9,0.6
				C58.3,151.6,58,151.9,57.4,151.9z"/>
			
				<ellipse transform="matrix(5.436975e-03 -1 1 5.436975e-03 -93.3659 208.1043)" class="st10" cx="57.9" cy="151" rx="0.1" ry="0.1"/>
		</g>
		<g>
			<path class="st9" d="M55.8,154c-0.7-0.1-1.5-0.6-1.4-1c0-0.3,0.9-0.7,1.6-0.6c0.7,0.1,1.1,0.5,1,0.9
				C57,153.8,56.5,154.1,55.8,154z"/>
			
				<ellipse transform="matrix(0.1352 -0.9908 0.9908 0.1352 -102.633 188.3378)" class="st10" cx="56.6" cy="153" rx="0.1" ry="0.2"/>
		</g>
		<g>
			<path class="st9" d="M59.3,153.5c-0.6,0.1-1.2-0.2-1.3-0.5c0-0.3,0.5-0.7,1.1-0.8c0.6-0.1,0.9,0.2,1,0.5
				C60.2,153.1,59.9,153.4,59.3,153.5z"/>
			
				<ellipse transform="matrix(0.9916 -0.1291 0.1291 0.9916 -19.1893 8.9794)" class="st10" cx="59.7" cy="152.5" rx="0.1" ry="0.1"/>
		</g>
		<g>
			<path class="st9" d="M54.5,145.5c-0.5,0.2-1,0.8-0.9,1c0.1,0.2,0.8,0.3,1.4,0.1c0.5-0.2,0.7-0.6,0.6-0.9
				C55.4,145.4,55,145.3,54.5,145.5z"/>
			
				<ellipse transform="matrix(0.9281 -0.3723 0.3723 0.9281 -50.4328 31.0907)" class="st10" cx="55.3" cy="146.1" rx="0.1" ry="0.1"/>
		</g>
		<g>
			<path class="st9" d="M54.9,140.3c-0.6,0.4-1,1.2-0.8,1.5c0.2,0.3,1.1,0.2,1.7-0.2c0.6-0.4,0.8-0.9,0.5-1.3
				C56,140,55.5,139.9,54.9,140.3z"/>
			
				<ellipse transform="matrix(0.8289 -0.5594 0.5594 0.8289 -69.2457 55.4466)" class="st10" cx="56" cy="140.9" rx="0.2" ry="0.1"/>
		</g>
		<g>
			<path class="st9" d="M52.3,143.6c-0.5,0.3-0.8,1-0.7,1.2c0.1,0.2,0.9,0.2,1.4-0.2c0.5-0.3,0.6-0.7,0.4-1
				C53.2,143.3,52.7,143.3,52.3,143.6z"/>
			<ellipse transform="matrix(0.8321 -0.5547 0.5547 0.8321 -70.973 53.6837)" class="st10" cx="53.2" cy="144" rx="0.1" ry="0.1"/>
		</g>
		<g>
			<path class="st9" d="M55.3,156.8c-0.1,0-0.1-0.1-0.2-0.1c-0.1,0-0.1,0-0.2-0.1h0c-0.5-0.2-1-0.4-1.5-0.6c0,0,0-0.1,0-0.1
				c0.1-0.2,0.9-0.2,1.4,0.1C55.2,156.2,55.3,156.5,55.3,156.8z"/>
			<path class="st10" d="M55.2,156.7C55.2,156.7,55.1,156.7,55.2,156.7c-0.1,0-0.2,0-0.2,0h0c0,0,0-0.1,0-0.1c0,0,0.1,0,0.2,0
				C55.2,156.5,55.2,156.6,55.2,156.7z"/>
		</g>
		<g>
			<path class="st9" d="M52.7,139.5c-0.4,0.4-0.6,1.1-0.4,1.3c0.2,0.2,0.9,0,1.3-0.4c0.4-0.4,0.5-0.9,0.2-1.1
				C53.5,139.1,53.1,139.1,52.7,139.5z"/>
			
				<ellipse transform="matrix(0.7074 -0.7068 0.7068 0.7074 -83.1206 78.8317)" class="st10" cx="53.7" cy="139.8" rx="0.2" ry="0.1"/>
		</g>
		<g>
			<path class="st9" d="M49.2,141.4c-0.3,0.3-0.4,0.9-0.3,1.1c0.1,0.2,0.7,0,1-0.3c0.3-0.3,0.3-0.7,0.1-0.9
				C49.8,141,49.5,141.1,49.2,141.4z"/>
			<path class="st10" d="M49.9,141.6c0,0-0.1,0.1,0,0.1c0,0,0.1,0,0.1,0c0,0,0.1-0.1,0-0.1C50,141.5,49.9,141.5,49.9,141.6z"/>
		</g>
		<g>
			<path class="st9" d="M50.6,138.5c-0.4,0.5-0.5,1.3-0.4,1.6c0.2,0.2,0.8,0,1.2-0.5c0.4-0.5,0.4-1,0.2-1.3
				C51.4,138,51,138,50.6,138.5z"/>
			<path class="st10" d="M51.5,138.8c-0.1,0.1-0.1,0.2,0,0.2c0,0,0.1,0,0.2,0c0.1-0.1,0.1-0.2,0-0.2
				C51.6,138.7,51.5,138.7,51.5,138.8z"/>
		</g>
		<g>
			<path class="st9" d="M46.7,140.5c-0.5,0.6-0.7,1.5-0.5,1.8c0.2,0.3,1.1,0,1.6-0.5c0.5-0.6,0.5-1.2,0.2-1.5
				C47.7,139.9,47.2,139.9,46.7,140.5z"/>
			<path class="st10" d="M47.8,140.8c-0.1,0.1-0.1,0.2,0,0.2c0,0.1,0.1,0,0.2,0c0.1-0.1,0.1-0.2,0-0.2
				C48,140.7,47.9,140.7,47.8,140.8z"/>
		</g>
		<g>
			<path class="st9" d="M49.2,141.4c-0.3,0.3-0.4,0.9-0.3,1.1c0.1,0.2,0.7,0,1-0.3c0.3-0.3,0.3-0.7,0.1-0.9
				C49.8,141,49.5,141.1,49.2,141.4z"/>
			<path class="st10" d="M49.9,141.6c0,0-0.1,0.1,0,0.1c0,0,0.1,0,0.1,0c0,0,0.1-0.1,0-0.1C50,141.5,49.9,141.5,49.9,141.6z"/>
		</g>
		<g>
			<path class="st9" d="M48.1,138.2c-0.3,0.3-0.4,0.9-0.3,1.1c0.1,0.2,0.7,0,1-0.3c0.3-0.3,0.3-0.7,0.1-0.9
				C48.7,137.8,48.4,137.8,48.1,138.2z"/>
			<path class="st10" d="M48.8,138.4c0,0-0.1,0.1,0,0.1c0,0,0.1,0,0.1,0c0,0,0.1-0.1,0-0.1C48.9,138.3,48.8,138.3,48.8,138.4z"/>
		</g>
		<g>
			<path class="st9" d="M42.9,139.5c-0.3,0.5-0.3,1.2-0.1,1.4c0.2,0.2,0.8-0.1,1.1-0.6c0.3-0.5,0.3-0.9,0-1.2
				C43.6,138.9,43.2,139,42.9,139.5z"/>
			<path class="st10" d="M43.8,139.6c0,0.1,0,0.1,0,0.2c0,0,0.1,0,0.2-0.1c0-0.1,0-0.1,0-0.2C43.9,139.5,43.8,139.5,43.8,139.6z"/>
		</g>
		<g>
			<path class="st9" d="M45.3,138.1c-0.4,0.6-0.5,1.5-0.2,1.7c0.2,0.2,1-0.1,1.3-0.7c0.4-0.6,0.3-1.1,0-1.4
				C46.2,137.4,45.7,137.5,45.3,138.1z"/>
			<path class="st10" d="M46.4,138.2c-0.1,0.1-0.1,0.2,0,0.2c0,0,0.1,0,0.2-0.1c0.1-0.1,0.1-0.2,0-0.2
				C46.5,138.1,46.4,138.1,46.4,138.2z"/>
		</g>
		<g>
			<path class="st9" d="M38.1,138.5c0.2,0.7,0.8,1.4,1.2,1.3c0.3,0,0.6-0.9,0.4-1.6c-0.2-0.7-0.6-1-1.1-1
				C38.2,137.3,37.9,137.8,38.1,138.5z"/>
			<path class="st10" d="M38.9,137.7c0,0.1,0.1,0.2,0.2,0.2c0.1,0,0.1-0.1,0.1-0.2c0-0.1-0.1-0.2-0.2-0.2
				C38.9,137.5,38.9,137.6,38.9,137.7z"/>
		</g>
		<g>
			<path class="st9" d="M35.1,136.6c0.2,0.5,0.7,1,1,1c0.3-0.1,0.4-0.7,0.2-1.3c-0.2-0.5-0.6-0.8-0.9-0.7
				C35.1,135.7,35,136,35.1,136.6z"/>
			<path class="st10" d="M35.8,135.9c0,0.1,0.1,0.1,0.1,0.1c0.1,0,0.1-0.1,0-0.2c0-0.1-0.1-0.1-0.1-0.1
				C35.8,135.8,35.7,135.9,35.8,135.9z"/>
		</g>
		<g>
			<path class="st9" d="M33.2,139c0.3,0.5,0.9,0.9,1.2,0.8c0.2-0.1,0.3-0.8,0-1.3c-0.3-0.5-0.7-0.7-1-0.5
				C33,138.2,32.9,138.5,33.2,139z"/>
			<path class="st10" d="M33.6,138.3c0,0.1,0.1,0.1,0.2,0.1c0,0,0.1-0.1,0-0.2c0-0.1-0.1-0.1-0.2-0.1
				C33.6,138.1,33.6,138.2,33.6,138.3z"/>
		</g>
		<g>
			<path class="st9" d="M35.1,136.6c0.2,0.5,0.7,1,1,1c0.3-0.1,0.4-0.7,0.2-1.3c-0.2-0.5-0.6-0.8-0.9-0.7
				C35.1,135.7,35,136,35.1,136.6z"/>
			<path class="st10" d="M35.8,135.9c0,0.1,0.1,0.1,0.1,0.1c0.1,0,0.1-0.1,0-0.2c0-0.1-0.1-0.1-0.1-0.1
				C35.8,135.8,35.7,135.9,35.8,135.9z"/>
		</g>
		<g>
			<path class="st9" d="M34.9,141.8c0.3,0.5,0.9,0.9,1.1,0.8c0.3-0.1,0.3-0.7,0-1.2c-0.3-0.5-0.7-0.7-1-0.6
				C34.8,140.9,34.7,141.3,34.9,141.8z"/>
			<path class="st10" d="M35.5,141.1c0,0.1,0.1,0.1,0.2,0.1c0,0,0.1-0.1,0-0.2c0-0.1-0.1-0.1-0.2-0.1C35.4,141,35.4,141,35.5,141.1z
				"/>
		</g>
		<g>
			<path class="st9" d="M35.5,144.5c0,0.1-0.2,0.2-0.4,0.2c0,0-0.1,0-0.1-0.1c-0.4-0.3-0.8-0.6-1.2-0.9c-0.1,0-0.1-0.1-0.2-0.1
				c0.2-0.3,0.5-0.4,1-0.1C35.2,143.8,35.6,144.3,35.5,144.5z"/>
		</g>
		<g>
			<path class="st9" d="M32.9,142.7c0,0-0.1,0.1-0.1,0.1c-0.5-0.4-0.9-0.9-1.4-1.4c0.2-0.2,0.6-0.2,0.9,0.1
				C32.7,141.9,33,142.5,32.9,142.7z"/>
		</g>
	</g>
</g>
<g>
	<g>
		<g>
			<g>
				<path class="st11" d="M43.2,88.2c0,15.2-11.5,28-26.8,31.3c-0.1-0.2-0.2-0.5-0.3-0.7c-0.6-1.4-1.1-2.9-1.6-4.4
					c-0.8-2.5-1.5-5.1-2.1-7.8c-0.4-2.1-0.8-4.3-1-6.5c-0.1-1.1-0.2-2.1-0.3-3.2C11,95.7,11,94.3,11,93c0-0.9,0-1.7,0.1-2.6
					c0.2-5.6,1.1-11.1,2.6-16.3c0.3-1.1,0.7-2.2,1-3.2c0.4-1.1,0.8-2.2,1.2-3.3c0.8-1.9,1.6-3.8,2.6-5.6c0.3-0.5,0.6-1.1,0.8-1.6
					c0.3-0.5,0.6-1.1,0.9-1.6c0.1-0.2,0.3-0.4,0.4-0.6C33.8,62.7,43.2,74.4,43.2,88.2z"/>
			</g>
			<path class="st12" d="M21,57.4c-0.1,0.2-0.3,0.4-0.4,0.6c-0.1,0.2-0.3,0.4-0.4,0.6c12.9,4.5,22.2,16,22.2,29.5
				c0,14.9-11.3,27.4-26.4,30.7c0.1,0.2,0.2,0.5,0.3,0.7c0.1,0.2,0.2,0.5,0.3,0.7c15.7-3.5,27.3-16.5,27.3-32
				C44,74.2,34.4,62.2,21,57.4z"/>
		</g>
	</g>
	<g>
		<g>
			<path class="st13" d="M40,88.2c0,9.2-4.2,17.5-10.9,23.1c-0.4,0.2-0.7,0.4-1.1,0.6c-0.2,0.1-0.3,0.2-0.5,0.2c0,0-7,5.4-13,2.4
				c-0.8-2.5-1.5-5.1-2.1-7.8c-0.4-2.1-0.8-4.3-1-6.5c-0.1-1.1-0.2-2.1-0.3-3.2C11,95.7,11,94.3,11,93c0-0.9,0-1.7,0.1-2.6
				c0.2-5.6,1.1-11.1,2.6-16.3c0.3-1.1,0.7-2.2,1-3.2c0.4-1.1,0.8-2.2,1.2-3.3c0.8-1.9,1.6-3.8,2.6-5.6c0.3-0.5,0.6-1.1,0.8-1.6
				c0.9,0,1.8,0.1,2.8,0.3C32.7,65.6,40,76,40,88.2z"/>
		</g>
	</g>
	<path class="st14" d="M13.2,93.7c0,1.5-0.9,2.7-2.1,3.3C11,95.7,11,94.3,11,93c0-0.9,0-1.7,0.1-2.6C12.3,91,13.2,92.2,13.2,93.7z"
		/>
	<path class="st14" d="M14,103.6c0,1.2-0.6,2.4-1.6,3c-0.4-2.1-0.8-4.3-1-6.5C12.9,100.6,14,102,14,103.6z"/>
	<path class="st14" d="M22.5,65.5c0,2-1.6,3.6-3.6,3.6c-1.2,0-2.3-0.6-3-1.6c0.8-1.9,1.6-3.8,2.6-5.6c0.1,0,0.3,0,0.4,0
		C20.9,61.9,22.5,63.5,22.5,65.5z"/>
	<circle class="st14" cx="25.5" cy="70.6" r="3.6"/>
	<circle class="st14" cx="32" cy="77.1" r="3.6"/>
	<circle class="st14" cx="33.1" cy="85.6" r="3.6"/>
	<circle class="st14" cx="32.6" cy="94.9" r="3.6"/>
	<circle class="st14" cx="28.6" cy="104" r="3.6"/>
	<circle class="st14" cx="20.6" cy="109.3" r="3.6"/>
	<circle class="st14" cx="19.5" cy="100.2" r="3.6"/>
	<circle class="st14" cx="17.4" cy="89" r="3.6"/>
	<circle class="st14" cx="15.9" cy="81.1" r="3.6"/>
	<circle class="st14" cx="25.4" cy="82" r="3.6"/>
	<circle class="st14" cx="24.6" cy="93.2" r="3.6"/>
	<path class="st14" d="M20.8,73.5c0,2-1.6,3.6-3.6,3.6c-1.8,0-3.2-1.3-3.5-2.9c0.3-1.1,0.7-2.2,1-3.2c0.6-0.6,1.5-1,2.5-1
		C19.2,69.9,20.8,71.5,20.8,73.5z"/>
</g>
<g>
	<g>
		<path class="st15" d="M145.7,79.5c0.9,4.4,1.3,8.9,1.3,13.5c0,0.9,0,1.7,0,2.6c0,0.6-0.1,1.3-0.1,1.9c-0.1,1.2-0.2,2.4-0.3,3.6
			c-0.2,1.8-0.5,3.5-0.8,5.3c-0.1,0.3-0.1,0.6-0.2,0.8c-0.3,0-0.6,0-0.9,0c-0.3,0-0.6,0-1,0c-0.3,0-0.6,0-0.9,0c-0.3,0-0.6,0-0.9,0
			c0,0-0.1,0-0.1,0c-0.2,0-0.4,0-0.6,0c-0.1,0-0.2,0-0.3,0c-0.3,0-0.6-0.1-0.9-0.1c-0.2,0-0.4,0-0.6-0.1c-0.3,0-0.6-0.1-0.9-0.1
			c-0.2,0-0.3,0-0.5-0.1c-0.4-0.1-0.9-0.1-1.3-0.2c-0.3,0-0.5-0.1-0.8-0.2c-0.5-0.1-1.1-0.2-1.6-0.4c-0.2-0.1-0.5-0.1-0.7-0.2
			c-0.2-0.1-0.4-0.1-0.5-0.2c-0.1,0-0.3-0.1-0.4-0.1c-0.4-0.1-0.8-0.3-1.2-0.4c-0.2-0.1-0.4-0.1-0.5-0.2c-0.1,0-0.1,0-0.2-0.1
			c-0.2-0.1-0.4-0.1-0.5-0.2c-0.2-0.1-0.4-0.2-0.6-0.3c-0.1-0.1-0.3-0.1-0.4-0.2c-0.1-0.1-0.2-0.1-0.3-0.2c-0.2-0.1-0.3-0.1-0.4-0.2
			c-0.2-0.1-0.4-0.2-0.6-0.3c-0.4-0.2-0.8-0.4-1.1-0.6c0,0,0,0,0,0c-0.4-0.2-0.7-0.4-1.1-0.7c-0.3-0.2-0.7-0.5-1-0.7
			c-0.3-0.2-0.6-0.5-0.9-0.7c-0.2-0.1-0.3-0.3-0.4-0.4c-0.2-0.2-0.5-0.4-0.7-0.6c-0.1-0.1-0.2-0.2-0.3-0.2c-0.1-0.1-0.2-0.2-0.3-0.3
			c-0.4-0.4-0.8-0.9-1.2-1.3c-0.1-0.1-0.2-0.2-0.3-0.3c-0.1-0.1-0.2-0.2-0.3-0.3c-0.1-0.1-0.2-0.2-0.2-0.3c-0.1-0.2-0.2-0.3-0.4-0.5
			c-0.1-0.1-0.2-0.2-0.3-0.4c-0.1-0.2-0.2-0.3-0.3-0.5c-0.1-0.1-0.1-0.2-0.2-0.3c-0.3-0.5-0.6-1.1-0.9-1.6c-0.1-0.3-0.3-0.5-0.4-0.8
			v0c-0.1-0.3-0.2-0.5-0.3-0.8c0,0,0-0.1-0.1-0.1c-0.1-0.1-0.1-0.3-0.1-0.4c-0.1-0.1-0.1-0.3-0.2-0.4c0-0.1-0.1-0.2-0.1-0.3
			c0-0.1-0.1-0.2-0.1-0.4c-0.1-0.3-0.2-0.6-0.2-0.9c0-0.1-0.1-0.2-0.1-0.3c0-0.1-0.1-0.3-0.1-0.4c-0.2-0.8-0.3-1.5-0.3-2.2
			c-0.1-0.9,0-1.8,0.2-2.8c1-5.9,6.2-12.7,14.1-16.7c2.8-1.5,6-2.6,9.5-3.1c0.2,0,0.3-0.1,0.5-0.1c0.2,0,0.3,0,0.5-0.1
			c0.1,0.3,0.2,0.5,0.4,0.8c1.7,3.8,3.1,7.7,4.1,11.8C145.2,77.6,145.5,78.5,145.7,79.5z"/>
		<path class="st16" d="M124,100.1c-4.2-3.5-7-8.5-7.3-13.3c-0.1-0.8,0-1.7,0.2-2.6c1-6,6.5-12.5,13.6-16.1c2.9-1.5,6-2.5,9.3-3.1
			c0.4-0.1,0.8-0.1,1.2-0.2c-0.1-0.3-0.2-0.5-0.4-0.8c-0.2,0-0.3,0-0.5,0.1c-0.2,0-0.3,0-0.5,0.1c-3.5,0.6-6.7,1.7-9.5,3.1
			c-7.8,4-13,10.8-14.1,16.7c-0.2,1-0.2,1.9-0.2,2.8c0,0.7,0.1,1.4,0.3,2.2c0,0.1,0.1,0.3,0.1,0.4c0,0.1,0,0.2,0.1,0.3
			c0.1,0.3,0.2,0.6,0.2,0.9c0,0.1,0.1,0.2,0.1,0.4c0,0.1,0.1,0.2,0.1,0.3c0,0.1,0.1,0.3,0.2,0.4c0,0.1,0.1,0.3,0.1,0.4
			c0,0,0,0.1,0.1,0.1c0.1,0.3,0.2,0.5,0.3,0.8v0c0.1,0.3,0.2,0.5,0.4,0.8c0.3,0.5,0.6,1.1,0.9,1.6c0.1,0.1,0.1,0.2,0.2,0.3
			c0.1,0.2,0.2,0.3,0.3,0.5c0.1,0.1,0.2,0.2,0.3,0.4c0.1,0.2,0.2,0.3,0.4,0.5c0.1,0.1,0.2,0.2,0.2,0.3c0.1,0.1,0.2,0.2,0.3,0.3
			c0.1,0.1,0.2,0.2,0.3,0.3c0.4,0.4,0.8,0.9,1.2,1.3c0.1,0.1,0.2,0.2,0.3,0.3c0.1,0.1,0.2,0.2,0.3,0.2c0.2,0.2,0.5,0.4,0.7,0.6
			c0.1,0.1,0.3,0.3,0.4,0.4c0.3,0.2,0.6,0.5,0.9,0.7c0.3,0.2,0.7,0.5,1,0.7c0.3,0.2,0.7,0.5,1.1,0.7c0,0,0,0,0,0
			c0.4,0.2,0.7,0.4,1.1,0.6c0.2,0.1,0.4,0.2,0.6,0.3c0.1,0.1,0.3,0.1,0.4,0.2c0.1,0.1,0.2,0.1,0.3,0.2c0.1,0.1,0.3,0.1,0.4,0.2
			c0.2,0.1,0.4,0.2,0.6,0.3c0.2,0.1,0.4,0.1,0.5,0.2c0.1,0,0.1,0,0.2,0.1c0.2,0.1,0.4,0.1,0.5,0.2c0.4,0.1,0.8,0.3,1.2,0.4
			c0.1,0,0.3,0.1,0.4,0.1c0.2,0.1,0.4,0.1,0.5,0.2c0.2,0.1,0.5,0.1,0.7,0.2c0.5,0.1,1,0.3,1.6,0.4c0.3,0.1,0.5,0.1,0.8,0.2
			c0.4,0.1,0.9,0.2,1.3,0.2c0.2,0,0.3,0.1,0.5,0.1c0.3,0,0.6,0.1,0.9,0.1c0.2,0,0.4,0,0.6,0.1c0.3,0,0.6,0.1,0.9,0.1
			c0.1,0,0.2,0,0.3,0c0.2,0,0.4,0,0.6,0c0,0,0.1,0,0.1,0c0.3,0,0.6,0,0.9,0c0.3,0,0.6,0,0.9,0c0.3,0,0.6,0,1,0c0.3,0,0.6,0,0.9,0
			c0.1-0.3,0.1-0.5,0.2-0.8C136.7,106.6,129.2,104.4,124,100.1z"/>
	</g>
	<path class="st17" d="M145.7,79.5c0.9,4.4,1.3,8.9,1.3,13.5c0,0.9,0,1.7,0,2.6c0,0.6-0.1,1.3-0.1,1.9c-0.1,1.2-0.2,2.4-0.3,3.6
		c-3.4,0-6.8-1.2-10.9-2.2c-6.1-1.5-6.9-4.8-8.3-8.1s-1.8-3-3.8-4.4c-1.9-1.5,1.1-3.8,4-6.2c2.8-2.4,11.6-3.8,17.1-3.6
		c0.1,0,0.3,0,0.4,0C145.2,77.6,145.5,78.5,145.7,79.5z"/>
	<g>
		<path class="st18" d="M147,93c0,0.9,0,1.7,0,2.6c-7.9,0.1-13-1.6-16.3-8.3c-0.2-1.3-0.2-2.5,0.1-3.6c1.1-4.5,9.7-4.5,14.9-4.1
			C146.5,83.9,147,88.4,147,93z"/>
		<path class="st19" d="M147,95.6c0,0.6-0.1,1.3-0.1,1.9c-10.1,1.8-15.3-4.8-16.2-10.3C133.9,94,139.1,95.7,147,95.6z"/>
	</g>
</g>
<g>
	<g>
		<g>
			<g>
				<path class="st20" d="M144.2,112.4c-0.4,1.4-0.9,2.7-1.3,4.1c-3.9-0.5-8.1-0.5-12.3-0.1c-4.7,0.4-9.5,1.8-14.1,3.4
					c-2.3,1-4.6,1.9-6.6,3.2c-2.1,1-4.4,2.9-6.3,4.2c-3.9,3.1-7.5,6.7-10.4,10.7c-2.8,4.1-5.3,8.3-6.9,12.8
					c-1.2,3.4-2.2,6.8-2.7,10.2c-1.4,0.1-2.9,0.1-4.4,0.1c0.3-3.9,1.2-7.9,2.5-11.9c1.6-4.9,4-9.8,7.1-14.3c3.2-4.5,7.1-8.5,11.4-12
					c2.5-1.7,4.3-3.1,6.9-4.5c2.5-1.5,5-2.5,7.5-3.6c5.1-1.9,10.5-3,15.6-3.3C135,111.2,139.8,111.4,144.2,112.4z"/>
				<path class="st0" d="M142.8,116.5c-0.3,0.9-0.7,1.8-1,2.7c-3.1-0.4-6.6-0.4-11,0c-3.8,0.3-8,1.4-13.3,3.3l-0.8,0.4
					c-1.9,0.8-3.8,1.6-5.4,2.6l-0.1,0.1l-0.1,0.1c-1.2,0.6-2.7,1.6-4.1,2.6c-0.6,0.5-1.3,0.9-1.8,1.3c-4,3.2-7.3,6.6-9.8,10
					c-3.2,4.6-5.2,8.5-6.5,12.1c-1.2,3.5-2,6.4-2.5,9c-1,0.1-1.9,0.2-2.9,0.2c0.5-3.4,1.5-6.8,2.7-10.2c1.6-4.5,4.1-8.7,6.9-12.8
					c2.9-4,6.5-7.6,10.4-10.7c1.9-1.3,4.3-3.2,6.3-4.2c2-1.3,4.4-2.2,6.6-3.2c4.6-1.7,9.4-3,14.1-3.4
					C134.7,116,138.9,115.9,142.8,116.5z"/>
			</g>
		</g>
		<g>
			<path class="st21" d="M141.8,119.1c-7.9,18.9-24.1,33.6-44.1,39.3c-0.5,0.1-0.9,0.3-1.4,0.4c-3.3,0.9-6.6,1.5-10,1.8
				c0.5-2.6,1.3-5.5,2.5-9c1.3-3.6,3.4-7.5,6.5-12.1c2.5-3.4,5.8-6.8,9.8-10c0.6-0.4,1.2-0.8,1.8-1.3c1.4-1,2.8-2,4.1-2.6l0.1-0.1
				l0.1-0.1c1.6-1,3.4-1.8,5.4-2.6l0.8-0.4c5.3-1.9,9.5-2.9,13.3-3.3C135.2,118.8,138.7,118.8,141.8,119.1z"/>
		</g>
		<path class="st22" d="M129.8,127.8c1.4,1.6,4.2,2,5,2.1c0.1,0,0.2,0,0.2,0s0,0,0,0c0,0,0,0,0,0s0-0.1,0-0.2
			c0.1-0.8,0.5-3.6-0.8-5.4c0,0,0-0.1-0.1-0.1c-1.9-2.5-3.9-0.9-4.2-0.7C129.9,123.7,127.8,125.3,129.8,127.8
			C129.8,127.8,129.8,127.8,129.8,127.8z"/>
		<path class="st22" d="M109.1,138.1c1.4,1.6,4.2,2,5,2.1c0.1,0,0.2,0,0.2,0s0,0,0,0c0,0,0,0,0,0s0-0.1,0-0.2
			c0.1-0.8,0.5-3.6-0.8-5.4c0,0,0-0.1-0.1-0.1c-1.9-2.5-3.9-0.9-4.2-0.7C109.2,134,107.1,135.6,109.1,138.1
			C109.1,138,109.1,138.1,109.1,138.1z"/>
		<path class="st22" d="M97.7,158.4c-0.5,0.1-0.9,0.3-1.4,0.4c-1.2-0.2-3-0.7-4-1.9c0,0,0-0.1-0.1-0.1c-1.9-2.4,0.1-4,0.4-4.2
			c0.3-0.2,2.3-1.8,4.2,0.7c0,0,0,0.1,0.1,0.1C98,154.9,97.9,157.4,97.7,158.4z"/>
	</g>
</g>
<g>
	<g>
		<g>
			<path class="st23" d="M82.9,32.1C82.9,49.2,69.1,63,52,63c-10.5,0-19.9-5.3-25.4-13.3c0.2-0.2,0.4-0.5,0.6-0.7
				c0.5-0.6,1-1.1,1.5-1.7c0.8-0.9,1.6-1.8,2.5-2.6c0.8-0.8,1.6-1.6,2.5-2.3c0.5-0.4,0.9-0.8,1.4-1.2c1.4-1.2,2.9-2.4,4.5-3.5
				c0,0,0,0,0,0c0.3-0.2,0.7-0.5,1-0.7c0.9-0.6,1.9-1.3,2.9-1.9c0.6-0.4,1.3-0.8,1.9-1.1c0.9-0.5,1.7-1,2.6-1.4
				c0.3-0.2,0.6-0.3,0.9-0.5c1.7-0.9,3.5-1.6,5.3-2.3c0.3-0.1,0.6-0.2,0.9-0.3c1.3-0.5,2.6-0.9,3.9-1.3c0.6-0.2,1.2-0.4,1.8-0.5
				c1.2-0.3,2.4-0.6,3.6-0.9c0.4-0.1,0.7-0.2,1.1-0.2c2.3-0.5,4.7-0.8,7.2-1.1c0.4,0,0.8-0.1,1.2-0.1c0.5,0,1-0.1,1.6-0.1
				c1.2-0.1,2.4-0.1,3.6-0.1H79c0.7,0,1.4,0,2.2,0c0.3,0,0.6,0,0.9,0C82.6,27.3,82.9,29.7,82.9,32.1z"/>
			<path class="st17" d="M82.1,25.1c-0.3,0-0.6,0-0.9,0c-0.7,0-1.4,0-2.2,0h-0.1c-1.2,0-2.4,0-3.6,0.1c0.7,2.3,1,4.6,1,7
				c0,6.5-2.5,12.6-7.1,17.2c-4.6,4.6-10.7,7.1-17.2,7.1c-6.5,0-12.6-2.5-17.2-7.1c-1.4-1.4-2.6-3-3.6-4.6c-0.9,0.8-1.7,1.7-2.5,2.6
				c-0.5,0.5-1,1.1-1.5,1.7c-0.2,0.2-0.4,0.5-0.6,0.7C32.1,57.8,41.5,63,52,63c17.1,0,30.9-13.8,30.9-30.9
				C82.9,29.7,82.6,27.3,82.1,25.1z"/>
		</g>
		<path class="st24" d="M82.1,25.1c-0.3,0-0.6,0-0.9,0c-0.7,0-1.4,0-2.2,0h-0.1c0.6,2.3,0.9,4.7,0.9,7.1c0,3.8-0.7,7.4-2.2,10.8
			c-1.4,3.3-3.4,6.3-6,8.9c-2.6,2.6-5.5,4.6-8.9,6C59.4,59.2,55.8,60,52,60c-3.8,0-7.4-0.7-10.8-2.2c-3.3-1.4-6.3-3.4-8.9-6
			c-1.4-1.4-2.6-2.9-3.7-4.5c-0.5,0.5-1,1.1-1.5,1.7c-0.2,0.2-0.4,0.5-0.6,0.7C32.1,57.8,41.5,63,52,63c17.1,0,30.9-13.8,30.9-30.9
			C82.9,29.7,82.6,27.3,82.1,25.1z"/>
	</g>
	<path class="st25" d="M82.1,25.1c-0.3,0-0.6,0-0.9,0c0.6,2.3,0.8,4.7,0.8,7.1c0,4-0.8,8-2.4,11.7c-1.5,3.6-3.7,6.8-6.4,9.5
		c-2.8,2.8-6,4.9-9.5,6.4c-3.7,1.6-7.6,2.4-11.7,2.4c-4.1,0-8-0.8-11.7-2.4c-3.6-1.5-6.8-3.7-9.5-6.4c-1.3-1.3-2.6-2.8-3.6-4.4
		c-0.2,0.2-0.4,0.5-0.6,0.7C32.1,57.8,41.5,63,52,63c17.1,0,30.9-13.8,30.9-30.9C82.9,29.7,82.6,27.3,82.1,25.1z"/>
	<g>
		<g>
			<path class="st26" d="M50,51.1c0-2.1,0.9-5,2-5c1.1,0,2,3,2,5c0,2.1-0.9,2.5-2,2.5C50.9,53.6,50,53.2,50,51.1z"/>
			<path class="st27" d="M54.5,47.5C53.7,45.4,52.7,45,52,45c-0.7,0-1.7,0.4-2.5,2.5c-0.4,1.1-0.7,2.5-0.7,3.7c0,3,1.7,3.6,3.2,3.6
				c1.4,0,3.2-0.6,3.2-3.6C55.1,50,54.9,48.6,54.5,47.5z M52,53.6c-1.1,0-2-0.4-2-2.5c0-2.1,0.9-5,2-5c1.1,0,2,3,2,5
				C54,53.2,53.1,53.6,52,53.6z"/>
		</g>
	</g>
	<g>
		<g>
			<path class="st26" d="M71,34.1c-2.1,0-5-0.9-5-2c0-1.1,3-2,5-2c2.1,0,2.5,0.9,2.5,2C73.5,33.2,73.1,34.1,71,34.1z"/>
			<path class="st27" d="M71,29c-1.2,0-2.5,0.2-3.7,0.7c-2.1,0.8-2.5,1.8-2.5,2.5c0,0.7,0.4,1.7,2.5,2.5c1.1,0.4,2.5,0.7,3.7,0.7
				c3,0,3.6-1.7,3.6-3.2C74.6,30.7,74,29,71,29z M71,34.1c-2.1,0-5-0.9-5-2c0-1.1,3-2,5-2s2.5,0.9,2.5,2
				C73.5,33.2,73.1,34.1,71,34.1z"/>
		</g>
	</g>
	<g>
		<g>
			<path class="st26" d="M37.1,44.2c1.5-1.5,4.2-2.9,5-2.1c0.8,0.8-0.7,3.5-2.1,5c-1.5,1.5-2.4,1.1-3.2,0.3
				C36,46.5,35.6,45.6,37.1,44.2z"/>
			<path class="st27" d="M42.9,41.2c-0.5-0.5-1.5-0.9-3.5,0c-1.1,0.5-2.2,1.3-3.1,2.1c-2.1,2.1-1.3,3.8-0.3,4.8c1,1,2.7,1.8,4.8-0.3
				c0.8-0.8,1.6-2,2.1-3.1C43.8,42.8,43.4,41.7,42.9,41.2z M40,47c-1.5,1.5-2.4,1.1-3.2,0.3c-0.8-0.8-1.1-1.7,0.3-3.2
				c1.5-1.5,4.2-2.9,5-2.1C42.9,42.8,41.4,45.5,40,47z"/>
		</g>
	</g>
	<g>
		<g>
			<path class="st26" d="M64,47c-1.5-1.5-2.9-4.2-2.1-5c0.8-0.8,3.5,0.7,5,2.1c1.5,1.5,1.1,2.4,0.3,3.2C66.4,48.1,65.5,48.5,64,47z"
				/>
			<path class="st27" d="M67.7,43.4c-0.8-0.8-2-1.6-3.1-2.1c-2-0.9-3-0.5-3.5,0c-0.5,0.5-0.9,1.5,0,3.5c0.5,1.1,1.3,2.2,2.1,3.1
				c2.1,2.1,3.8,1.3,4.8,0.3C69,47.1,69.8,45.5,67.7,43.4z M67.2,47.3c-0.8,0.8-1.7,1.1-3.2-0.3c-1.5-1.5-2.9-4.2-2.1-5
				c0.8-0.8,3.5,0.7,5,2.1C68.3,45.6,68,46.6,67.2,47.3z"/>
		</g>
	</g>
	<g>
		<g>
			<path class="st26" d="M50.5,40.8c0-1.8,0.8-4.3,1.7-4.3c0.9,0,1.7,2.5,1.7,4.3s-0.8,2.1-1.7,2.1C51.2,42.9,50.5,42.6,50.5,40.8z"
				/>
			<path class="st27" d="M54.3,37.7c-0.6-1.7-1.5-2.1-2.1-2.1c-0.6,0-1.5,0.4-2.1,2.1c-0.3,1-0.6,2.1-0.6,3.1c0,2.5,1.5,3.1,2.7,3.1
				c1.2,0,2.7-0.5,2.7-3.1C54.8,39.8,54.6,38.7,54.3,37.7z M52.2,42.9c-0.9,0-1.7-0.3-1.7-2.1s0.8-4.3,1.7-4.3
				c0.9,0,1.7,2.5,1.7,4.3S53.1,42.9,52.2,42.9z"/>
		</g>
	</g>
	<g>
		<g>
			<path class="st26" d="M60.6,34.1c-1.8,0-4.3-0.8-4.3-1.7c0-0.9,2.5-1.7,4.3-1.7s2.1,0.8,2.1,1.7C62.7,33.3,62.4,34.1,60.6,34.1z"
				/>
			<path class="st27" d="M60.6,29.7c-1,0-2.2,0.2-3.1,0.6c-1.7,0.6-2.1,1.5-2.1,2.1c0,0.6,0.4,1.5,2.1,2.1c1,0.4,2.1,0.6,3.1,0.6
				c2.5,0,3.1-1.5,3.1-2.7C63.7,31.2,63.2,29.7,60.6,29.7z M60.6,34.1c-1.8,0-4.3-0.8-4.3-1.7c0-0.9,2.5-1.7,4.3-1.7
				c1.8,0,2.1,0.8,2.1,1.7C62.7,33.3,62.4,34.1,60.6,34.1z"/>
		</g>
		<g>
			<path class="st26" d="M48,32.5c-0.1,0.6-1.3,1.2-2.6,1.4C46.2,33.4,47.1,32.9,48,32.5z"/>
			<path class="st27" d="M48.9,32c-0.3,0.2-0.6,0.3-0.9,0.5c-0.1,0.6-1.3,1.2-2.6,1.4c-0.6,0.4-1.3,0.8-1.9,1.1c0.1,0,0.2,0,0.3,0
				c1,0,2.2-0.2,3.1-0.6c1.7-0.6,2.1-1.5,2.1-2.1C48.9,32.3,48.9,32.1,48.9,32z"/>
		</g>
	</g>
	<g>
		<g>
			<path class="st26" d="M56.9,39.6c-1.2-1.2-2.5-3.6-1.8-4.2c0.7-0.7,3,0.6,4.2,1.8c1.2,1.2,0.9,2,0.3,2.7
				C59,40.5,58.2,40.8,56.9,39.6z"/>
			<path class="st27" d="M60,36.5c-0.7-0.7-1.7-1.4-2.6-1.8c-1.7-0.8-2.6-0.4-3,0c-0.4,0.4-0.8,1.3,0,3c0.4,0.9,1.1,1.9,1.8,2.6
				c1.8,1.8,3.2,1.1,4.1,0.3C61.2,39.7,61.8,38.3,60,36.5z M59.6,39.9c-0.7,0.7-1.5,1-2.7-0.3c-1.2-1.2-2.5-3.6-1.8-4.2
				c0.7-0.7,3,0.6,4.2,1.8C60.6,38.4,60.3,39.2,59.6,39.9z"/>
		</g>
	</g>
	<g>
		<g>
			<path class="st26" d="M59,28c-1.3,1.1-3.2,2-3.8,1.4c0,0-0.1-0.1-0.1-0.1C56.4,28.8,57.6,28.4,59,28z"/>
			<path class="st27" d="M59,28c-1.3,1.1-3.2,2-3.8,1.4c0,0-0.1-0.1-0.1-0.1c-0.3,0.1-0.6,0.2-0.9,0.3c0.1,0.2,0.2,0.3,0.3,0.4
				c0.4,0.4,1.3,0.8,3,0c0.9-0.4,1.9-1.1,2.6-1.8c0.3-0.3,0.5-0.6,0.7-0.8C60.1,27.6,59.5,27.8,59,28z"/>
		</g>
		<g>
			<path class="st26" d="M45,37.1c1.2-1.2,3.6-2.5,4.2-1.8c0.7,0.7-0.6,3-1.8,4.2c-1.2,1.2-2,0.9-2.7,0.3C44,39.2,43.7,38.4,45,37.1
				z"/>
			<path class="st27" d="M49.9,34.7c-0.4-0.4-1.3-0.8-3,0c-0.9,0.4-1.9,1.1-2.6,1.8c-1.8,1.8-1.1,3.2-0.3,4.1
				c0.9,0.9,2.3,1.5,4.1-0.3c0.7-0.7,1.4-1.7,1.8-2.6C50.7,36,50.3,35.1,49.9,34.7z M47.4,39.6c-1.2,1.2-2,0.9-2.7,0.3
				c-0.7-0.7-1-1.5,0.3-2.7c1.2-1.2,3.6-2.5,4.2-1.8C49.9,36,48.6,38.3,47.4,39.6z"/>
		</g>
	</g>
	<g>
		<path class="st26" d="M57.1,50.2c-0.7-1.9-0.9-5,0.1-5.4c1-0.4,2.9,2,3.7,4c0.7,1.9,0,2.6-1,3C58.8,52.2,57.8,52.1,57.1,50.2z"/>
		<path class="st27" d="M61.9,48.3c-0.4-1.1-1.1-2.3-1.9-3.2c-1.4-1.6-2.5-1.7-3.2-1.4c-0.7,0.3-1.5,1-1.4,3.2
			c0,1.2,0.3,2.6,0.7,3.7c1.1,2.8,2.9,2.8,4.2,2.3C61.6,52.3,63,51.1,61.9,48.3z M59.9,51.8c-1,0.4-2,0.3-2.8-1.6
			c-0.7-1.9-0.9-5,0.1-5.4c1-0.4,2.9,2,3.7,4C61.6,50.7,60.9,51.4,59.9,51.8z"/>
	</g>
	<g>
		<path class="st26" d="M72.6,25.3c-0.2,0.5-0.7,1-1.7,1.4c-1.9,0.7-5,0.9-5.4-0.1c0-0.1,0-0.1,0-0.2C67.8,25.9,70.1,25.5,72.6,25.3
			z"/>
		<path class="st27" d="M72.6,25.3c-0.2,0.5-0.7,1-1.7,1.4c-1.9,0.7-5,0.9-5.4-0.1c0-0.1,0-0.1,0-0.2c-0.4,0.1-0.7,0.2-1.1,0.2
			c0,0.1,0.1,0.3,0.1,0.4c0.3,0.7,1,1.5,3.2,1.5c1.2,0,2.6-0.3,3.7-0.7c1.7-0.6,2.4-1.6,2.5-2.5C73.4,25.2,73,25.3,72.6,25.3z"/>
	</g>
	<g>
		<path class="st26" d="M39.5,37.6c-0.1,1.1-2.3,2.7-4,3.3c-0.2,0.1-0.3,0.1-0.4,0.2C36.5,39.9,38,38.7,39.5,37.6z"/>
		<path class="st27" d="M40.5,36.9c-0.3,0.2-0.7,0.5-1,0.7c0,0,0,0,0,0c-0.1,1.1-2.3,2.7-4,3.3c-0.2,0.1-0.3,0.1-0.4,0.2
			c-0.5,0.4-1,0.8-1.4,1.2c0.6,0.1,1.4,0,2.3-0.3c1.1-0.4,2.3-1.1,3.2-1.9C40.7,38.7,40.8,37.6,40.5,36.9z"/>
	</g>
	<g>
		<path class="st26" d="M42.6,48.2c1.1-1.8,3.4-3.8,4.3-3.2c1,0.6,0.2,3.6-0.9,5.3c-1.1,1.8-2.1,1.6-3,1.1
			C42.1,50.8,41.6,50,42.6,48.2z"/>
		<path class="st27" d="M47.6,44c-0.6-0.4-1.7-0.5-3.4,0.8c-0.9,0.7-1.9,1.8-2.5,2.8c-1.6,2.5-0.4,4,0.8,4.7c1.2,0.8,3,1.1,4.6-1.4
			c0.6-1,1.1-2.3,1.4-3.5C48.8,45.3,48.2,44.4,47.6,44z M46.1,50.3c-1.1,1.8-2.1,1.6-3,1.1c-1-0.6-1.5-1.4-0.4-3.2
			c1.1-1.8,3.4-3.8,4.3-3.2C47.9,45.5,47.2,48.5,46.1,50.3z"/>
	</g>
	<g>
		<path class="st26" d="M68.8,41.3c-1.8-0.9-4.1-3.1-3.5-4.1c0.5-1,3.5-0.4,5.4,0.5c1.8,0.9,1.8,1.9,1.3,2.9
			C71.4,41.6,70.6,42.2,68.8,41.3z"/>
		<path class="st27" d="M71.1,36.7c-1-0.5-2.4-0.9-3.6-1.1c-2.2-0.3-3,0.4-3.3,1.1c-0.3,0.6-0.4,1.7,1.1,3.3c0.8,0.9,1.9,1.7,3,2.3
			c2.6,1.4,4,0.1,4.6-1.2C73.5,39.8,73.8,38,71.1,36.7z M71.9,40.6c-0.5,1-1.3,1.6-3.1,0.7c-1.8-0.9-4.1-3.1-3.6-4.1
			c0.5-1,3.6-0.4,5.4,0.5C72.4,38.6,72.4,39.6,71.9,40.6z"/>
	</g>
</g>
<g>
	<g>
		<g>
			<g>
				<path class="st28" d="M136.6,56.8c-0.5,0.5-0.9,1-1.4,1.5c-10.4,10-28.1,10.5-34,4.9c-2.7-2.6-3.6-4.2-3.8-5.2
					c-0.1,0-0.1,0-0.2,0l0.9-0.9c0.1,0,0.1,0,0.2,0c0.2,1,1.1,2.5,3.6,5c5.6,5.4,22.5,4.9,32.4-4.6c0.6-0.5,1.1-1.1,1.6-1.7
					C136.1,56.1,136.4,56.5,136.6,56.8z"/>
				<path class="st29" d="M98.1,57l-0.9,0.9c-1-0.2-2.7-1.1-5.3-3.8c-4.7-4.8-5.3-17.7,0.3-27.9c0.4,0.1,0.9,0.2,1.3,0.3
					C88,36.3,88.5,48.8,93,53.4C95.5,56,97.1,56.9,98.1,57z"/>
				<path class="st30" d="M106.5,48.5L98.1,57c-1-0.2-2.5-1-5.1-3.6c-4.5-4.6-5-17.1,0.4-26.9c4.9,1.1,9.6,2.7,14.1,4.7
					c-0.4,0.3-0.8,0.7-1.2,1.1C97.2,40.9,106.3,48.3,106.5,48.5z"/>
				<path class="st31" d="M135.9,55.7c-0.5,0.6-1,1.1-1.6,1.7c-9.9,9.6-26.8,10-32.4,4.6c-2.5-2.5-3.4-4-3.6-5c-0.1,0-0.1,0-0.2,0
					l8.4-8.5c0,0,0,0,0,0s9,9.2,16.9-0.4c1.2-1.5,2-2.9,2.6-4.2C129.7,47.4,133,51.4,135.9,55.7z"/>
				<path class="st32" d="M126,43.8c-0.6,1.3-1.4,2.8-2.6,4.2c-7.8,9.7-16.9,0.4-16.9,0.4s0,0,0,0l11.3-11.4
					C120.7,39.1,123.4,41.4,126,43.8z"/>
				<path class="st33" d="M117.8,37.1l-11.3,11.4c-0.2-0.2-9.2-7.6-0.2-16.2c0.4-0.4,0.8-0.8,1.2-1.1
					C111.1,32.9,114.5,34.9,117.8,37.1z"/>
			</g>
		</g>
	</g>
</g>
<g>
	<path class="st34" d="M176.8,64.9c0-3.4-0.1-6.1-0.3-8.8h5.2l0.3,5.2h0.2c1.8-3.1,4.8-6,10.2-6c4.4,0,7.8,2.7,9.2,6.5h0.1
		c1-1.8,2.3-3.2,3.6-4.2c1.9-1.5,4.1-2.3,7.2-2.3c4.3,0,10.7,2.8,10.7,14.1v19.1h-5.8V70.2c0-6.2-2.3-10-7-10c-3.3,0-6,2.5-7,5.4
		c-0.3,0.8-0.5,1.9-0.5,2.9v20h-5.8V69.1c0-5.2-2.3-8.9-6.8-8.9c-3.7,0-6.4,2.9-7.3,5.9c-0.3,0.9-0.5,1.9-0.5,2.9v19.6h-5.8V64.9z"
		/>
	<path class="st34" d="M232.7,66.2c0-3.8-0.1-7.1-0.3-10.1h5.2l0.2,6.4h0.3c1.5-4.4,5-7.1,9-7.1c0.7,0,1.1,0.1,1.7,0.2v5.6
		c-0.6-0.1-1.2-0.2-2-0.2c-4.2,0-7.1,3.1-7.9,7.6c-0.1,0.8-0.3,1.7-0.3,2.7v17.3h-5.8V66.2z"/>
	<path class="st34" d="M282,56.1c-0.1,2.3-0.3,5-0.3,8.9v18.8c0,7.4-1.5,12-4.6,14.8c-3.1,2.9-7.7,3.9-11.8,3.9
		c-3.9,0-8.2-0.9-10.8-2.7l1.5-4.5c2.1,1.3,5.5,2.5,9.5,2.5c6,0,10.5-3.2,10.5-11.3V83h-0.1c-1.8,3-5.3,5.4-10.3,5.4
		c-8,0-13.8-6.8-13.8-15.8c0-11,7.2-17.2,14.6-17.2c5.6,0,8.7,2.9,10.1,5.6h0.1l0.3-4.9H282z M275.9,68.9c0-1-0.1-1.9-0.3-2.7
		c-1.1-3.4-4-6.2-8.2-6.2c-5.6,0-9.6,4.8-9.6,12.3c0,6.4,3.2,11.7,9.6,11.7c3.6,0,6.9-2.3,8.2-6c0.3-1,0.5-2.1,0.5-3.1V68.9z"/>
	<path class="st34" d="M294.8,73.4c0.1,8,5.2,11.3,11.1,11.3c4.2,0,6.8-0.7,9-1.7l1,4.2c-2.1,0.9-5.6,2-10.8,2
		c-10,0-15.9-6.6-15.9-16.3c0-9.8,5.8-17.5,15.2-17.5c10.6,0,13.4,9.3,13.4,15.3c0,1.2-0.1,2.1-0.2,2.7H294.8z M312.1,69.2
		c0.1-3.8-1.5-9.6-8.2-9.6c-6,0-8.6,5.5-9,9.6H312.1z"/>
	<path class="st34" d="M325.1,66.2c0-3.8-0.1-7.1-0.3-10.1h5.2l0.2,6.4h0.3c1.5-4.4,5-7.1,9-7.1c0.7,0,1.1,0.1,1.7,0.2v5.6
		c-0.6-0.1-1.2-0.2-2-0.2c-4.2,0-7.1,3.1-7.9,7.6c-0.1,0.8-0.3,1.7-0.3,2.7v17.3h-5.8V66.2z"/>
	<path class="st34" d="M342,85.1c0-2.5,1.7-4.2,4-4.2c2.3,0,4,1.7,4,4.2c0,2.4-1.5,4.2-4,4.2C343.6,89.3,342,87.5,342,85.1z"/>
	<path class="st34" d="M375.2,88.6l-0.5-4.1h-0.2c-1.8,2.5-5.3,4.8-9.9,4.8c-6.6,0-9.9-4.6-9.9-9.3c0-7.8,7-12.1,19.5-12.1v-0.7
		c0-2.7-0.7-7.5-7.4-7.5c-3,0-6.2,0.9-8.4,2.4l-1.3-3.9c2.7-1.7,6.6-2.9,10.7-2.9c9.9,0,12.3,6.8,12.3,13.3v12.1
		c0,2.8,0.1,5.6,0.5,7.8H375.2z M374.4,72c-6.4-0.1-13.7,1-13.7,7.3c0,3.8,2.5,5.6,5.6,5.6c4.2,0,6.9-2.7,7.8-5.4
		c0.2-0.6,0.3-1.3,0.3-1.9V72z"/>
	<path class="st34" d="M389.6,64.9c0-3.4-0.1-6.1-0.3-8.8h5.2l0.3,5.2h0.2c1.8-3.1,4.8-6,10.2-6c4.4,0,7.8,2.7,9.2,6.5h0.1
		c1-1.8,2.3-3.2,3.6-4.2c1.9-1.5,4.1-2.3,7.2-2.3c4.3,0,10.7,2.8,10.7,14.1v19.1h-5.8V70.2c0-6.2-2.3-10-7-10c-3.3,0-6,2.5-7,5.4
		c-0.3,0.8-0.5,1.9-0.5,2.9v20h-5.8V69.1c0-5.2-2.3-8.9-6.8-8.9c-3.7,0-6.4,2.9-7.3,5.9c-0.3,0.9-0.5,1.9-0.5,2.9v19.6h-5.8V64.9z"
		/>
</g>
<g>
	<path class="st35" d="M176.9,130.6v-10h-1.6v-1.6h1.6v-0.6c0-1.6,0.4-3.1,1.3-4.1c0.8-0.8,1.8-1.1,2.8-1.1c0.7,0,1.4,0.2,1.8,0.3
		l-0.3,1.6c-0.3-0.1-0.7-0.3-1.3-0.3c-1.8,0-2.3,1.6-2.3,3.4v0.6h2.8v1.6H179v10H176.9z"/>
	<path class="st35" d="M183.7,122.6c0-1.4,0-2.5-0.1-3.6h1.8l0.1,2.3h0.1c0.5-1.6,1.8-2.5,3.2-2.5c0.2,0,0.4,0,0.6,0.1v2
		c-0.2,0-0.4-0.1-0.7-0.1c-1.5,0-2.5,1.1-2.8,2.7c0,0.3-0.1,0.6-0.1,1v6.2h-2.1V122.6z"/>
	<path class="st35" d="M192.4,125.1c0,2.9,1.9,4,4,4c1.5,0,2.4-0.3,3.2-0.6l0.4,1.5c-0.7,0.3-2,0.7-3.9,0.7c-3.6,0-5.7-2.4-5.7-5.9
		c0-3.5,2.1-6.3,5.4-6.3c3.8,0,4.8,3.3,4.8,5.5c0,0.4,0,0.8-0.1,1H192.4z M198.6,123.6c0-1.3-0.6-3.4-2.9-3.4c-2.1,0-3.1,2-3.2,3.4
		H198.6z"/>
	<path class="st35" d="M203,128.4c0.6,0.4,1.7,0.8,2.8,0.8c1.5,0,2.3-0.8,2.3-1.7c0-1-0.6-1.6-2.2-2.1c-2.1-0.7-3.1-1.9-3.1-3.3
		c0-1.9,1.5-3.4,4-3.4c1.2,0,2.2,0.3,2.9,0.7l-0.5,1.5c-0.5-0.3-1.3-0.7-2.4-0.7c-1.2,0-1.9,0.7-1.9,1.6c0,1,0.7,1.4,2.2,2
		c2,0.8,3,1.8,3,3.5c0,2-1.6,3.5-4.3,3.5c-1.3,0-2.4-0.3-3.3-0.8L203,128.4z"/>
	<path class="st35" d="M212.8,113.5h2.1v7.2h0c0.3-0.6,0.9-1.1,1.5-1.5c0.6-0.4,1.4-0.6,2.2-0.6c1.6,0,4.1,1,4.1,5v6.9h-2.1v-6.7
		c0-1.9-0.7-3.5-2.7-3.5c-1.4,0-2.4,1-2.8,2.1c-0.1,0.3-0.1,0.6-0.1,1v7h-2.1V113.5z"/>
	<path class="st35" d="M231.4,130.6v-10h-1.6v-1.6h1.6v-0.6c0-1.6,0.4-3.1,1.3-4.1c0.8-0.8,1.8-1.1,2.8-1.1c0.7,0,1.4,0.2,1.8,0.3
		l-0.3,1.6c-0.3-0.1-0.7-0.3-1.3-0.3c-1.8,0-2.3,1.6-2.3,3.4v0.6h2.8v1.6h-2.8v10H231.4z"/>
	<path class="st35" d="M238.2,122.6c0-1.4,0-2.5-0.1-3.6h1.8l0.1,2.3h0.1c0.5-1.6,1.8-2.5,3.2-2.5c0.2,0,0.4,0,0.6,0.1v2
		c-0.2,0-0.4-0.1-0.7-0.1c-1.5,0-2.5,1.1-2.8,2.7c0,0.3-0.1,0.6-0.1,1v6.2h-2.1V122.6z"/>
	<path class="st35" d="M255.8,127.4c0,1.2,0,2.3,0.1,3.2H254l-0.1-1.9h0c-0.6,0.9-1.8,2.2-3.8,2.2c-1.8,0-4-1-4-5.1v-6.8h2.1v6.4
		c0,2.2,0.7,3.7,2.6,3.7c1.4,0,2.4-1,2.8-1.9c0.1-0.3,0.2-0.7,0.2-1.1v-7.1h2.1V127.4z"/>
	<path class="st35" d="M261.6,115.7c0,0.7-0.5,1.3-1.3,1.3c-0.7,0-1.3-0.6-1.3-1.3c0-0.7,0.6-1.3,1.3-1.3
		C261.1,114.4,261.6,114.9,261.6,115.7z M259.3,130.6v-11.6h2.1v11.6H259.3z"/>
	<path class="st35" d="M267.4,115.6v3.3h3v1.6h-3v6.3c0,1.4,0.4,2.3,1.6,2.3c0.6,0,1-0.1,1.2-0.1l0.1,1.6c-0.4,0.2-1.1,0.3-1.9,0.3
		c-1,0-1.8-0.3-2.3-0.9c-0.6-0.6-0.8-1.7-0.8-3v-6.3h-1.8v-1.6h1.8v-2.8L267.4,115.6z"/>
	<path class="st35" d="M272.6,128.4c0.6,0.4,1.7,0.8,2.8,0.8c1.5,0,2.3-0.8,2.3-1.7c0-1-0.6-1.6-2.2-2.1c-2.1-0.7-3.1-1.9-3.1-3.3
		c0-1.9,1.5-3.4,4-3.4c1.2,0,2.2,0.3,2.9,0.7l-0.5,1.5c-0.5-0.3-1.3-0.7-2.4-0.7c-1.2,0-1.9,0.7-1.9,1.6c0,1,0.7,1.4,2.2,2
		c2,0.8,3,1.8,3,3.5c0,2-1.6,3.5-4.3,3.5c-1.3,0-2.4-0.3-3.3-0.8L272.6,128.4z"/>
	<path class="st35" d="M293.9,130.6l-0.2-1.5h-0.1c-0.6,0.9-1.9,1.7-3.6,1.7c-2.4,0-3.6-1.7-3.6-3.3c0-2.8,2.5-4.3,7-4.3v-0.2
		c0-1-0.3-2.7-2.6-2.7c-1.1,0-2.2,0.3-3,0.9l-0.5-1.4c1-0.6,2.4-1,3.8-1c3.6,0,4.4,2.4,4.4,4.8v4.3c0,1,0,2,0.2,2.8H293.9z
		 M293.6,124.6c-2.3,0-4.9,0.4-4.9,2.6c0,1.4,0.9,2,2,2c1.5,0,2.5-1,2.8-1.9c0.1-0.2,0.1-0.5,0.1-0.7V124.6z"/>
	<path class="st35" d="M299,122.1c0-1.2,0-2.2-0.1-3.1h1.9l0.1,1.9h0c0.6-1.1,1.9-2.2,3.8-2.2c1.6,0,4.1,1,4.1,4.9v6.9h-2.1v-6.7
		c0-1.9-0.7-3.4-2.7-3.4c-1.4,0-2.5,1-2.8,2.2c-0.1,0.3-0.1,0.6-0.1,1v7H299V122.1z"/>
	<path class="st35" d="M322.4,113.5v14c0,1,0,2.2,0.1,3h-1.9l-0.1-2h0c-0.6,1.3-2.1,2.3-4,2.3c-2.8,0-5-2.4-5-5.9
		c0-3.9,2.4-6.2,5.2-6.2c1.8,0,3,0.8,3.5,1.8h0v-6.9H322.4z M320.2,123.7c0-0.3,0-0.6-0.1-0.9c-0.3-1.3-1.5-2.4-3-2.4
		c-2.2,0-3.5,1.9-3.5,4.5c0,2.4,1.2,4.3,3.4,4.3c1.4,0,2.7-0.9,3.1-2.5c0.1-0.3,0.1-0.6,0.1-0.9V123.7z"/>
	<path class="st35" d="M331.8,118.9l2.3,6.5c0.4,1.1,0.7,2,0.9,3h0.1c0.3-1,0.6-1.9,1-3l2.3-6.5h2.2l-4.6,11.6h-2l-4.4-11.6H331.8z"
		/>
	<path class="st35" d="M343.4,125.1c0,2.9,1.9,4,4,4c1.5,0,2.4-0.3,3.2-0.6l0.4,1.5c-0.7,0.3-2,0.7-3.9,0.7c-3.6,0-5.7-2.4-5.7-5.9
		c0-3.5,2.1-6.3,5.4-6.3c3.8,0,4.8,3.3,4.8,5.5c0,0.4,0,0.8-0.1,1H343.4z M349.6,123.6c0-1.3-0.6-3.4-2.9-3.4c-2.1,0-3.1,2-3.2,3.4
		H349.6z"/>
	<path class="st35" d="M364.3,118.9c0,0.8-0.1,1.8-0.1,3.2v6.7c0,2.7-0.5,4.3-1.7,5.3c-1.1,1.1-2.8,1.4-4.2,1.4
		c-1.4,0-2.9-0.3-3.9-1l0.5-1.6c0.8,0.5,2,0.9,3.4,0.9c2.2,0,3.7-1.1,3.7-4.1v-1.3h0c-0.6,1.1-1.9,1.9-3.7,1.9
		c-2.9,0-4.9-2.4-4.9-5.7c0-3.9,2.6-6.2,5.2-6.2c2,0,3.1,1.1,3.6,2h0l0.1-1.8H364.3z M362.1,123.5c0-0.4,0-0.7-0.1-1
		c-0.4-1.2-1.4-2.2-3-2.2c-2,0-3.5,1.7-3.5,4.4c0,2.3,1.2,4.2,3.4,4.2c1.3,0,2.5-0.8,2.9-2.2c0.1-0.4,0.2-0.8,0.2-1.1V123.5z"/>
	<path class="st35" d="M368.9,125.1c0,2.9,1.9,4,4,4c1.5,0,2.4-0.3,3.2-0.6l0.4,1.5c-0.7,0.3-2,0.7-3.9,0.7c-3.6,0-5.7-2.4-5.7-5.9
		c0-3.5,2.1-6.3,5.4-6.3c3.8,0,4.8,3.3,4.8,5.5c0,0.4,0,0.8-0.1,1H368.9z M375.1,123.6c0-1.3-0.6-3.4-2.9-3.4c-2.1,0-3.1,2-3.2,3.4
		H375.1z"/>
	<path class="st35" d="M382.3,115.6v3.3h3v1.6h-3v6.3c0,1.4,0.4,2.3,1.6,2.3c0.6,0,1-0.1,1.2-0.1l0.1,1.6c-0.4,0.2-1.1,0.3-1.9,0.3
		c-1,0-1.8-0.3-2.3-0.9c-0.6-0.6-0.8-1.7-0.8-3v-6.3h-1.8v-1.6h1.8v-2.8L382.3,115.6z"/>
	<path class="st35" d="M394.1,130.6l-0.2-1.5h-0.1c-0.6,0.9-1.9,1.7-3.6,1.7c-2.4,0-3.6-1.7-3.6-3.3c0-2.8,2.5-4.3,7-4.3v-0.2
		c0-1-0.3-2.7-2.6-2.7c-1.1,0-2.2,0.3-3,0.9l-0.5-1.4c1-0.6,2.4-1,3.8-1c3.6,0,4.4,2.4,4.4,4.8v4.3c0,1,0,2,0.2,2.8H394.1z
		 M393.8,124.6c-2.3,0-4.9,0.4-4.9,2.6c0,1.4,0.9,2,2,2c1.5,0,2.5-1,2.8-1.9c0.1-0.2,0.1-0.5,0.1-0.7V124.6z"/>
	<path class="st35" d="M399.1,130.6c0-0.8,0.1-2,0.1-3v-14h2.1v7.3h0c0.7-1.3,2.1-2.1,4-2.1c2.9,0,4.9,2.4,4.9,5.9
		c0,4.2-2.6,6.2-5.2,6.2c-1.7,0-3-0.6-3.9-2.2H401l-0.1,1.9H399.1z M401.3,125.9c0,0.3,0,0.5,0.1,0.8c0.4,1.5,1.6,2.5,3.2,2.5
		c2.2,0,3.5-1.8,3.5-4.5c0-2.3-1.2-4.3-3.5-4.3c-1.4,0-2.8,1-3.2,2.6c0,0.2-0.1,0.5-0.1,0.9V125.9z"/>
	<path class="st35" d="M412.9,113.5h2.1v17h-2.1V113.5z"/>
	<path class="st35" d="M419.7,125.1c0,2.9,1.9,4,4,4c1.5,0,2.4-0.3,3.2-0.6l0.4,1.5c-0.7,0.3-2,0.7-3.9,0.7c-3.6,0-5.7-2.4-5.7-5.9
		c0-3.5,2.1-6.3,5.4-6.3c3.8,0,4.8,3.3,4.8,5.5c0,0.4,0,0.8-0.1,1H419.7z M425.9,123.6c0-1.3-0.6-3.4-2.9-3.4c-2.1,0-3.1,2-3.2,3.4
		H425.9z"/>
	<path class="st35" d="M430.3,128.4c0.6,0.4,1.7,0.8,2.8,0.8c1.5,0,2.3-0.8,2.3-1.7c0-1-0.6-1.6-2.2-2.1c-2.1-0.7-3.1-1.9-3.1-3.3
		c0-1.9,1.5-3.4,4-3.4c1.2,0,2.2,0.3,2.9,0.7l-0.5,1.5c-0.5-0.3-1.3-0.7-2.4-0.7c-1.2,0-1.9,0.7-1.9,1.6c0,1,0.7,1.4,2.2,2
		c2,0.8,3,1.8,3,3.5c0,2-1.6,3.5-4.3,3.5c-1.3,0-2.4-0.3-3.3-0.8L430.3,128.4z"/>
</g>
</svg>
